<svg xmlns="http://www.w3.org/2000/svg" xmlns:xlink="http://www.w3.org/1999/xlink" viewBox="0 0 1200 1200" width="1200" height="1200" preserveAspectRatio="xMidYMid meet" style="width: 100%; height: 100%; transform: translate3d(0px, 0px, 0px); content-visibility: visible;" id="Web Content Design"><defs><clipPath id="__lottie_element_10680"><rect width="1200" height="1200" x="0" y="0"/></clipPath><clipPath id="__lottie_element_10682"><path d="M0,0 L1200,0 L1200,1200 L0,1200z"/></clipPath><clipPath id="__lottie_element_10686"><path d="M0,0 L480,0 L480,768 L0,768z"/></clipPath></defs><g clip-path="url(#__lottie_element_10680)"><g clip-path="url(#__lottie_element_10682)" transform="matrix(1,0,0,1,0,0)" opacity="1" style="display: block;"><g transform="matrix(1,0,0,1,0,0)" opacity="1" style="display: block;"><g opacity="1" transform="matrix(1,0,0,1,530.4180297851562,851.0449829101562)"><path fill="rgb(250,250,250)" fill-opacity="1" d=" M-306.1440124511719,-35.60300064086914 C-276.4079895019531,-68.48100280761719 -215.08099365234375,-62.71200180053711 -166.18099975585938,-36.96200180053711 C-115.34400177001953,-136.43099975585938 -7.638999938964844,-165.55599975585938 52.59600067138672,-128.00599670410156 C92.70700073242188,-103.0009994506836 112.60900115966797,-47.90599822998047 108.30899810791016,9.23900032043457 C113.61199951171875,9.46399974822998 130.76499938964844,10.869000434875488 144.99899291992188,24.187000274658203 C167.95799255371094,45.667999267578125 161.718994140625,77.93299865722656 161.30499267578125,79.9000015258789 C190.8350067138672,14.508999824523926 267.99200439453125,-11.74899959564209 325.72698974609375,17.392000198364258 C376.3940124511719,42.96699905395508 402.62298583984375,106.4209976196289 382.79901123046875,165.50799560546875 C382.79901123046875,165.50799560546875 -272.17401123046875,165.50799560546875 -272.17401123046875,165.50799560546875 C-297.9909973144531,165.55599975585938 -402.62298583984375,71.06800079345703 -306.1440124511719,-35.60300064086914z"/><path stroke-linecap="round" stroke-linejoin="round" fill-opacity="0" stroke="rgb(25,25,25)" stroke-opacity="1" stroke-width="1" d=" M-306.1440124511719,-35.60300064086914 C-276.4079895019531,-68.48100280761719 -215.08099365234375,-62.71200180053711 -166.18099975585938,-36.96200180053711 C-115.34400177001953,-136.43099975585938 -7.638999938964844,-165.55599975585938 52.59600067138672,-128.00599670410156 C92.70700073242188,-103.0009994506836 112.60900115966797,-47.90599822998047 108.30899810791016,9.23900032043457 C113.61199951171875,9.46399974822998 130.76499938964844,10.869000434875488 144.99899291992188,24.187000274658203 C167.95799255371094,45.667999267578125 161.718994140625,77.93299865722656 161.30499267578125,79.9000015258789 C190.8350067138672,14.508999824523926 267.99200439453125,-11.74899959564209 325.72698974609375,17.392000198364258 C376.3940124511719,42.96699905395508 402.62298583984375,106.4209976196289 382.79901123046875,165.50799560546875 C382.79901123046875,165.50799560546875 -272.17401123046875,165.50799560546875 -272.17401123046875,165.50799560546875 C-297.9909973144531,165.55599975585938 -402.62298583984375,71.06800079345703 -306.1440124511719,-35.60300064086914z"/></g><g opacity="1" transform="matrix(1,0,0,1,0,0)"><path stroke-linecap="round" stroke-linejoin="round" fill-opacity="0" stroke="rgb(25,25,25)" stroke-opacity="1" stroke-width="0.92" d=" M154.9720001220703,1016.5540161132812 C154.9720001220703,1016.5540161132812 1045.0269775390625,1016.5540161132812 1045.0269775390625,1016.5540161132812"/></g><g opacity="1" transform="matrix(1,0,0,1,928.6179809570312,618.8599853515625)"><path fill="rgb(250,250,250)" fill-opacity="1" d=" M20.836000442504883,0 C20.836000442504883,11.506999969482422 11.508000373840332,20.836000442504883 0,20.836000442504883 C-11.506999969482422,20.836000442504883 -20.836000442504883,11.506999969482422 -20.836000442504883,0 C-20.836000442504883,-11.508000373840332 -11.506999969482422,-20.836000442504883 0,-20.836000442504883 C11.508000373840332,-20.836000442504883 20.836000442504883,-11.508000373840332 20.836000442504883,0z"/><path stroke-linecap="round" stroke-linejoin="round" fill-opacity="0" stroke="rgb(25,25,25)" stroke-opacity="1" stroke-width="1" d=" M20.836000442504883,0 C20.836000442504883,11.506999969482422 11.508000373840332,20.836000442504883 0,20.836000442504883 C-11.506999969482422,20.836000442504883 -20.836000442504883,11.506999969482422 -20.836000442504883,0 C-20.836000442504883,-11.508000373840332 -11.506999969482422,-20.836000442504883 0,-20.836000442504883 C11.508000373840332,-20.836000442504883 20.836000442504883,-11.508000373840332 20.836000442504883,0z"/></g><g opacity="1" transform="matrix(1,0,0,1,239.14700317382812,582.593017578125)"><path fill="rgb(250,250,250)" fill-opacity="1" d=" M29.81999969482422,0 C29.81999969482422,16.4689998626709 16.4689998626709,29.81999969482422 0,29.81999969482422 C-16.4689998626709,29.81999969482422 -29.81999969482422,16.4689998626709 -29.81999969482422,0 C-29.81999969482422,-16.4689998626709 -16.4689998626709,-29.81999969482422 0,-29.81999969482422 C16.4689998626709,-29.81999969482422 29.81999969482422,-16.4689998626709 29.81999969482422,0z"/><path stroke-linecap="round" stroke-linejoin="round" fill-opacity="0" stroke="rgb(25,25,25)" stroke-opacity="1" stroke-width="1" d=" M29.81999969482422,0 C29.81999969482422,16.4689998626709 16.4689998626709,29.81999969482422 0,29.81999969482422 C-16.4689998626709,29.81999969482422 -29.81999969482422,16.4689998626709 -29.81999969482422,0 C-29.81999969482422,-16.4689998626709 -16.4689998626709,-29.81999969482422 0,-29.81999969482422 C16.4689998626709,-29.81999969482422 29.81999969482422,-16.4689998626709 29.81999969482422,0z"/></g></g><g transform="matrix(1.0087794065475464,0,0,1.0087794065475464,-16.47127342224121,-28.480634689331055)" opacity="1" style="display: block;"><g opacity="1" transform="matrix(1,0,0,1,700.0819702148438,752.5369873046875)"><path fill="rgb(250,250,250)" fill-opacity="1" d=" M10.255000114440918,12.67199993133545 C10.255000114440918,12.67199993133545 -3.8580000400543213,-15.895999908447266 -3.8580000400543213,-15.895999908447266 C-3.8580000400543213,-15.895999908447266 -10.255999565124512,-12.967000007629395 -10.255999565124512,-12.967000007629395 C-10.255999565124512,-12.967000007629395 4.3460001945495605,15.895999908447266 4.3460001945495605,15.895999908447266 C4.3460001945495605,15.895999908447266 10.255000114440918,12.67199993133545 10.255000114440918,12.67199993133545z"/><path stroke-linecap="round" stroke-linejoin="round" fill-opacity="0" stroke="rgb(25,25,25)" stroke-opacity="1" stroke-width="1" d=" M10.255000114440918,12.67199993133545 C10.255000114440918,12.67199993133545 -3.8580000400543213,-15.895999908447266 -3.8580000400543213,-15.895999908447266 C-3.8580000400543213,-15.895999908447266 -10.255999565124512,-12.967000007629395 -10.255999565124512,-12.967000007629395 C-10.255999565124512,-12.967000007629395 4.3460001945495605,15.895999908447266 4.3460001945495605,15.895999908447266 C4.3460001945495605,15.895999908447266 10.255000114440918,12.67199993133545 10.255000114440918,12.67199993133545z"/></g><g opacity="1" transform="matrix(1,0,0,1,725.5750122070312,816.5050048828125)"><path fill="rgb(250,250,250)" fill-opacity="1" d=" M-22.073999404907227,-37.91400146484375 C-22.073999404907227,-37.91400146484375 -9.571999549865723,-17.20800018310547 -10.157999992370605,-12.128999710083008 C-10.744000434875488,-7.050000190734863 -18.16699981689453,-8.416999816894531 -18.16699981689453,-8.416999816894531 C-18.16699981689453,-8.416999816894531 -28.1299991607666,-26.975000381469727 -32.428001403808594,-36.547000885009766 C-36.724998474121094,-46.11899948120117 -25.785999298095703,-48.268001556396484 -25.785999298095703,-48.268001556396484 C-25.785999298095703,-48.268001556396484 -14.456000328063965,-54.323001861572266 -14.456000328063965,-54.323001861572266 C-14.456000328063965,-54.323001861572266 34.965999603271484,43.402000427246094 36.724998474121094,47.70000076293945 C36.724998474121094,47.70000076293945 25.760000228881836,54.323001861572266 25.760000228881836,54.323001861572266 C25.760000228881836,54.323001861572266 -10.446000099182129,-10.984000205993652 -10.446000099182129,-10.984000205993652"/><path stroke-linecap="round" stroke-linejoin="round" fill-opacity="0" stroke="rgb(25,25,25)" stroke-opacity="1" stroke-width="1" d=" M-22.073999404907227,-37.91400146484375 C-22.073999404907227,-37.91400146484375 -9.571999549865723,-17.20800018310547 -10.157999992370605,-12.128999710083008 C-10.744000434875488,-7.050000190734863 -18.16699981689453,-8.416999816894531 -18.16699981689453,-8.416999816894531 C-18.16699981689453,-8.416999816894531 -28.1299991607666,-26.975000381469727 -32.428001403808594,-36.547000885009766 C-36.724998474121094,-46.11899948120117 -25.785999298095703,-48.268001556396484 -25.785999298095703,-48.268001556396484 C-25.785999298095703,-48.268001556396484 -14.456000328063965,-54.323001861572266 -14.456000328063965,-54.323001861572266 C-14.456000328063965,-54.323001861572266 34.965999603271484,43.402000427246094 36.724998474121094,47.70000076293945 C36.724998474121094,47.70000076293945 25.760000228881836,54.323001861572266 25.760000228881836,54.323001861572266 C25.760000228881836,54.323001861572266 -10.446000099182129,-10.984000205993652 -10.446000099182129,-10.984000205993652"/></g><g opacity="1" transform="matrix(1,0,0,1,705.9429931640625,774)"><path stroke-linecap="round" stroke-linejoin="round" fill-opacity="0" stroke="rgb(25,25,25)" stroke-opacity="1" stroke-width="1" d=" M3.809000015258789,-4.591000080108643 C3.809000015258789,-4.591000080108643 2.0510001182556152,-3.4189999103546143 -0.8790000081062317,-1.659999966621399 C-3.809000015258789,0.09700000286102295 -2.441999912261963,4.591000080108643 -2.441999912261963,4.591000080108643"/></g></g><g transform="matrix(1.0087794065475464,0,0,1.0087794065475464,-6.6925048828125,-27.088821411132812)" opacity="1" style="display: block;"><g opacity="1" transform="matrix(1,0,0,1,760.1510009765625,799.0230102539062)"><path fill="rgb(250,250,250)" fill-opacity="1" d=" M-15.041999816894531,-79.62200164794922 C-15.041999816894531,-79.62200164794922 -18.753999710083008,79.62200164794922 -18.753999710083008,79.62200164794922 C-18.753999710083008,79.62200164794922 11.914999961853027,79.62200164794922 11.914999961853027,79.62200164794922 C11.914999961853027,79.62200164794922 18.753000259399414,-78.64399719238281 18.753000259399414,-78.64399719238281 C18.753000259399414,-78.64399719238281 -15.041999816894531,-79.62200164794922 -15.041999816894531,-79.62200164794922z"/><path stroke-linecap="round" stroke-linejoin="round" fill-opacity="0" stroke="rgb(25,25,25)" stroke-opacity="1" stroke-width="1" d=" M-15.041999816894531,-79.62200164794922 C-15.041999816894531,-79.62200164794922 -18.753999710083008,79.62200164794922 -18.753999710083008,79.62200164794922 C-18.753999710083008,79.62200164794922 11.914999961853027,79.62200164794922 11.914999961853027,79.62200164794922 C11.914999961853027,79.62200164794922 18.753000259399414,-78.64399719238281 18.753000259399414,-78.64399719238281 C18.753000259399414,-78.64399719238281 -15.041999816894531,-79.62200164794922 -15.041999816894531,-79.62200164794922z"/></g><g opacity="1" transform="matrix(1,0,0,1,761.1279907226562,759.2509765625)"><path fill="rgb(14,14,14)" fill-opacity="1" d=" M-18.948999404907227,-18.947999954223633 C-18.948999404907227,-18.947999954223633 19.729999542236328,-17.58099937438965 19.729999542236328,-17.58099937438965 C19.729999542236328,-17.58099937438965 17.777000427246094,18.947999954223633 17.777000427246094,18.947999954223633 C17.777000427246094,18.947999954223633 -19.729999542236328,18.947999954223633 -19.729999542236328,18.947999954223633 C-19.729999542236328,18.947999954223633 -18.948999404907227,-18.947999954223633 -18.948999404907227,-18.947999954223633z"/><path stroke-linecap="round" stroke-linejoin="round" fill-opacity="0" stroke="rgb(25,25,25)" stroke-opacity="1" stroke-width="1" d=" M-18.948999404907227,-18.947999954223633 C-18.948999404907227,-18.947999954223633 19.729999542236328,-17.58099937438965 19.729999542236328,-17.58099937438965 C19.729999542236328,-17.58099937438965 17.777000427246094,18.947999954223633 17.777000427246094,18.947999954223633 C17.777000427246094,18.947999954223633 -19.729999542236328,18.947999954223633 -19.729999542236328,18.947999954223633 C-19.729999542236328,18.947999954223633 -18.948999404907227,-18.947999954223633 -18.948999404907227,-18.947999954223633z"/></g></g><g transform="matrix(1.0087794065475464,0,0,1.0087794065475464,0.15265201032161713,-28.480634689331055)" opacity="1" style="display: block;"><g opacity="1" transform="matrix(1,0,0,1,823.1489868164062,713.1500244140625)"><path fill="rgb(14,14,14)" fill-opacity="1" d=" M-12.598999977111816,23.489999771118164 C-12.598999977111816,23.489999771118164 -16.898000717163086,6.250999927520752 -16.898000717163086,6.250999927520752 C-16.898000717163086,6.250999927520752 -9.668999671936035,-11.916000366210938 -9.668999671936035,-11.916000366210938 C-9.668999671936035,-11.916000366210938 9.864999771118164,-25.785999298095703 9.864999771118164,-25.785999298095703 C9.864999771118164,-25.785999298095703 13.1850004196167,-25.003999710083008 13.1850004196167,-25.003999710083008 C13.1850004196167,-25.003999710083008 16.89699935913086,-3.7119998931884766 16.89699935913086,-3.7119998931884766 C16.89699935913086,-3.7119998931884766 9.279000282287598,17.58099937438965 9.279000282287598,17.58099937438965 C9.279000282287598,17.58099937438965 -2.246000051498413,25.78499984741211 -2.246000051498413,25.78499984741211 C-2.246000051498413,25.78499984741211 -12.598999977111816,23.489999771118164 -12.598999977111816,23.489999771118164z"/><path stroke-linecap="round" stroke-linejoin="round" fill-opacity="0" stroke="rgb(25,25,25)" stroke-opacity="1" stroke-width="1" d=" M-12.598999977111816,23.489999771118164 C-12.598999977111816,23.489999771118164 -16.898000717163086,6.250999927520752 -16.898000717163086,6.250999927520752 C-16.898000717163086,6.250999927520752 -9.668999671936035,-11.916000366210938 -9.668999671936035,-11.916000366210938 C-9.668999671936035,-11.916000366210938 9.864999771118164,-25.785999298095703 9.864999771118164,-25.785999298095703 C9.864999771118164,-25.785999298095703 13.1850004196167,-25.003999710083008 13.1850004196167,-25.003999710083008 C13.1850004196167,-25.003999710083008 16.89699935913086,-3.7119998931884766 16.89699935913086,-3.7119998931884766 C16.89699935913086,-3.7119998931884766 9.279000282287598,17.58099937438965 9.279000282287598,17.58099937438965 C9.279000282287598,17.58099937438965 -2.246000051498413,25.78499984741211 -2.246000051498413,25.78499984741211 C-2.246000051498413,25.78499984741211 -12.598999977111816,23.489999771118164 -12.598999977111816,23.489999771118164z"/></g><g opacity="1" transform="matrix(1,0,0,1,822.9539794921875,719.6939697265625)"><path stroke-linecap="round" stroke-linejoin="round" fill-opacity="0" stroke="rgb(250,250,250)" stroke-opacity="1" stroke-width="1" d=" M7.324999809265137,-19.240999221801758 C7.324999809265137,-19.240999221801758 -7.324999809265137,19.240999221801758 -7.324999809265137,19.240999221801758"/></g><g opacity="1" transform="matrix(1,0,0,1,795.2210083007812,805.0980224609375)"><path fill="rgb(250,250,250)" fill-opacity="1" d=" M12.788999557495117,-70.45999908447266 C12.788999557495117,-70.45999908447266 -28.819000244140625,67.00700378417969 -28.819000244140625,67.00700378417969 C-28.819000244140625,67.00700378417969 -15.13700008392334,70.45999908447266 -15.13700008392334,70.45999908447266 C-15.13700008392334,70.45999908447266 28.819000244140625,-66.66500091552734 28.819000244140625,-66.66500091552734 C28.819000244140625,-66.66500091552734 12.788999557495117,-70.45999908447266 12.788999557495117,-70.45999908447266z"/><path stroke-linecap="round" stroke-linejoin="round" fill-opacity="0" stroke="rgb(25,25,25)" stroke-opacity="1" stroke-width="1" d=" M12.788999557495117,-70.45999908447266 C12.788999557495117,-70.45999908447266 -28.819000244140625,67.00700378417969 -28.819000244140625,67.00700378417969 C-28.819000244140625,67.00700378417969 -15.13700008392334,70.45999908447266 -15.13700008392334,70.45999908447266 C-15.13700008392334,70.45999908447266 28.819000244140625,-66.66500091552734 28.819000244140625,-66.66500091552734 C28.819000244140625,-66.66500091552734 12.788999557495117,-70.45999908447266 12.788999557495117,-70.45999908447266z"/></g></g><g transform="matrix(1.0087794065475464,0,0,1.0087794065475464,2.3904502391815186,-27.088760375976562)" opacity="1" style="display: block;"><g opacity="1" transform="matrix(1,0,0,1,823.6129760742188,820.89697265625)"><path fill="rgb(250,250,250)" fill-opacity="1" d=" M-38.31100082397461,50.60599899291992 C-38.31100082397461,50.60599899291992 8.130000114440918,-58.71500015258789 8.130000114440918,-58.71500015258789 C8.130000114440918,-58.71500015258789 30.400999069213867,-51.731998443603516 30.400999069213867,-51.731998443603516 C30.400999069213867,-51.731998443603516 38.3120002746582,-40.417999267578125 38.3120002746582,-40.417999267578125 C38.3120002746582,-40.417999267578125 20.584999084472656,0.27900001406669617 20.584999084472656,0.27900001406669617 C20.584999084472656,0.27900001406669617 14.284000396728516,-2.065999984741211 14.430000305175781,-2.505000114440918 C14.57699966430664,-2.944999933242798 27.0310001373291,-30.488000869750977 27.0310001373291,-30.488000869750977 C27.0310001373291,-30.488000869750977 23.378000259399414,-35.60200119018555 23.378000259399414,-35.60200119018555 C23.378000259399414,-35.60200119018555 -21.20800018310547,58.71500015258789 -21.20800018310547,58.71500015258789 C-21.20800018310547,58.71500015258789 -38.31100082397461,50.60599899291992 -38.31100082397461,50.60599899291992z"/><path stroke-linecap="round" stroke-linejoin="round" fill-opacity="0" stroke="rgb(25,25,25)" stroke-opacity="1" stroke-width="1" d=" M-38.31100082397461,50.60599899291992 C-38.31100082397461,50.60599899291992 8.130000114440918,-58.71500015258789 8.130000114440918,-58.71500015258789 C8.130000114440918,-58.71500015258789 30.400999069213867,-51.731998443603516 30.400999069213867,-51.731998443603516 C30.400999069213867,-51.731998443603516 38.3120002746582,-40.417999267578125 38.3120002746582,-40.417999267578125 C38.3120002746582,-40.417999267578125 20.584999084472656,0.27900001406669617 20.584999084472656,0.27900001406669617 C20.584999084472656,0.27900001406669617 14.284000396728516,-2.065999984741211 14.430000305175781,-2.505000114440918 C14.57699966430664,-2.944999933242798 27.0310001373291,-30.488000869750977 27.0310001373291,-30.488000869750977 C27.0310001373291,-30.488000869750977 23.378000259399414,-35.60200119018555 23.378000259399414,-35.60200119018555 C23.378000259399414,-35.60200119018555 -21.20800018310547,58.71500015258789 -21.20800018310547,58.71500015258789 C-21.20800018310547,58.71500015258789 -38.31100082397461,50.60599899291992 -38.31100082397461,50.60599899291992z"/></g><g opacity="1" transform="matrix(1,0,0,1,850.5029907226562,777.22998046875)"><path fill="rgb(250,250,250)" fill-opacity="1" d=" M3.510999917984009,-8.0649995803833 C3.510999917984009,-8.0649995803833 -3.510999917984009,8.0649995803833 -3.510999917984009,8.0649995803833"/><path stroke-linecap="round" stroke-linejoin="round" fill-opacity="0" stroke="rgb(25,25,25)" stroke-opacity="1" stroke-width="1" d=" M3.510999917984009,-8.0649995803833 C3.510999917984009,-8.0649995803833 -3.510999917984009,8.0649995803833 -3.510999917984009,8.0649995803833"/></g></g><g transform="matrix(1.0087794065475464,0,0,1.0087794065475464,-6.6925048828125,-8.923095703125)" opacity="1" style="display: block;"><g opacity="1" transform="matrix(1,0,0,1,764.6439819335938,926.093017578125)"><path fill="rgb(250,250,250)" fill-opacity="1" d=" M-62.70500183105469,-90.26699829101562 C-62.70500183105469,-90.26699829101562 -43.124000549316406,90.26699829101562 -43.124000549316406,90.26699829101562 C-43.124000549316406,90.26699829101562 41.448001861572266,90.26699829101562 41.448001861572266,90.26699829101562 C41.448001861572266,90.26699829101562 62.70600128173828,-90.26699829101562 62.70600128173828,-90.26699829101562 C62.70600128173828,-90.26699829101562 -62.70500183105469,-90.26699829101562 -62.70500183105469,-90.26699829101562z"/><path stroke-linecap="round" stroke-linejoin="round" fill-opacity="0" stroke="rgb(25,25,25)" stroke-opacity="1" stroke-width="1" d=" M-62.70500183105469,-90.26699829101562 C-62.70500183105469,-90.26699829101562 -43.124000549316406,90.26699829101562 -43.124000549316406,90.26699829101562 C-43.124000549316406,90.26699829101562 41.448001861572266,90.26699829101562 41.448001861572266,90.26699829101562 C41.448001861572266,90.26699829101562 62.70600128173828,-90.26699829101562 62.70600128173828,-90.26699829101562 C62.70600128173828,-90.26699829101562 -62.70500183105469,-90.26699829101562 -62.70500183105469,-90.26699829101562z"/></g><g opacity="1" transform="matrix(1,0,0,1,762.2990112304688,832.114990234375)"><path fill="rgb(250,250,250)" fill-opacity="1" d=" M72.4729995727539,8.399999618530273 C72.4729995727539,8.399999618530273 -72.47200012207031,8.399999618530273 -72.47200012207031,8.399999618530273 C-72.47200012207031,8.399999618530273 -72.47200012207031,-8.399999618530273 -72.47200012207031,-8.399999618530273 C-72.47200012207031,-8.399999618530273 72.4729995727539,-8.399999618530273 72.4729995727539,-8.399999618530273 C72.4729995727539,-8.399999618530273 72.4729995727539,8.399999618530273 72.4729995727539,8.399999618530273z"/><path stroke-linecap="round" stroke-linejoin="round" fill-opacity="0" stroke="rgb(25,25,25)" stroke-opacity="1" stroke-width="1" d=" M72.4729995727539,8.399999618530273 C72.4729995727539,8.399999618530273 -72.47200012207031,8.399999618530273 -72.47200012207031,8.399999618530273 C-72.47200012207031,8.399999618530273 -72.47200012207031,-8.399999618530273 -72.47200012207031,-8.399999618530273 C-72.47200012207031,-8.399999618530273 72.4729995727539,-8.399999618530273 72.4729995727539,-8.399999618530273 C72.4729995727539,-8.399999618530273 72.4729995727539,8.399999618530273 72.4729995727539,8.399999618530273z"/></g></g><g transform="matrix(1,0,0,1,0,0)" opacity="1" style="display: block;"><g opacity="1" transform="matrix(1,0,0,1,590.7680053710938,945.4420166015625)"><path fill="rgb(250,250,250)" fill-opacity="1" d=" M-300.135986328125,71.11199951171875 C-300.135986328125,71.11199951171875 303.09600830078125,70.88300323486328 303.09600830078125,70.88300323486328 C314.17999267578125,13.26099967956543 283.5539855957031,-39.862998962402344 241.56199645996094,-53.94300079345703 C190.36399841308594,-71.11199951171875 119.15399932861328,-31.288999557495117 107.9469985961914,42.75299835205078 C102.9020004272461,32.63600158691406 92.822998046875,26.12299919128418 81.86799621582031,25.952999114990234 C67.5530014038086,25.729999542236328 58.98099899291992,36.45100021362305 58.0359992980957,37.67399978637695 C54.82500076293945,-3.9560000896453857 27.187000274658203,-39.37099838256836 -11.116000175476074,-51.40399932861328 C-54.37799835205078,-64.99299621582031 -103.11399841308594,-46.20100021362305 -127.54100036621094,-5.301000118255615 C-166.8780059814453,-58.88999938964844 -237.58099365234375,-66.23400115966797 -276.00299072265625,-33.821998596191406 C-304.0400085449219,-10.170000076293945 -314.17999267578125,29.715999603271484 -300.135986328125,71.11199951171875z"/><path stroke-linecap="round" stroke-linejoin="round" fill-opacity="0" stroke="rgb(25,25,25)" stroke-opacity="1" stroke-width="1" d=" M-300.135986328125,71.11199951171875 C-300.135986328125,71.11199951171875 303.09600830078125,70.88300323486328 303.09600830078125,70.88300323486328 C314.17999267578125,13.26099967956543 283.5539855957031,-39.862998962402344 241.56199645996094,-53.94300079345703 C190.36399841308594,-71.11199951171875 119.15399932861328,-31.288999557495117 107.9469985961914,42.75299835205078 C102.9020004272461,32.63600158691406 92.822998046875,26.12299919128418 81.86799621582031,25.952999114990234 C67.5530014038086,25.729999542236328 58.98099899291992,36.45100021362305 58.0359992980957,37.67399978637695 C54.82500076293945,-3.9560000896453857 27.187000274658203,-39.37099838256836 -11.116000175476074,-51.40399932861328 C-54.37799835205078,-64.99299621582031 -103.11399841308594,-46.20100021362305 -127.54100036621094,-5.301000118255615 C-166.8780059814453,-58.88999938964844 -237.58099365234375,-66.23400115966797 -276.00299072265625,-33.821998596191406 C-304.0400085449219,-10.170000076293945 -314.17999267578125,29.715999603271484 -300.135986328125,71.11199951171875z"/></g><g opacity="1" transform="matrix(1,0,0,1,502.8559875488281,1039.5980224609375)"><path fill="rgb(250,250,250)" fill-opacity="1" d=" M-204.49400329589844,-23.23699951171875 C-204.49400329589844,-23.23699951171875 199.08299255371094,-23.23699951171875 199.08299255371094,-23.23699951171875 C199.08299255371094,-23.23699951171875 204.49400329589844,23.23699951171875 14.253000259399414,22.475000381469727 C-175.98800659179688,21.71299934387207 -204.49400329589844,-23.23699951171875 -204.49400329589844,-23.23699951171875z"/><path stroke-linecap="round" stroke-linejoin="round" fill-opacity="0" stroke="rgb(25,25,25)" stroke-opacity="1" stroke-width="0.92" d=" M-204.49400329589844,-23.23699951171875 C-204.49400329589844,-23.23699951171875 199.08299255371094,-23.23699951171875 199.08299255371094,-23.23699951171875 C199.08299255371094,-23.23699951171875 204.49400329589844,23.23699951171875 14.253000259399414,22.475000381469727 C-175.98800659179688,21.71299934387207 -204.49400329589844,-23.23699951171875 -204.49400329589844,-23.23699951171875z"/></g></g><g transform="matrix(1,0,0,1,0,0)" opacity="1" style="display: block;"><g opacity="1" transform="matrix(1,0,0,1,580.9219970703125,508.23199462890625)"><path fill="rgb(250,250,250)" fill-opacity="1" d=" M-239.7570037841797,-162.62399291992188 C-239.9010009765625,-161.3249969482422 -239.9810028076172,-160.00599670410156 -239.9810028076172,-158.66799926757812 C-239.9810028076172,-158.66799926757812 -239.9810028076172,127.02200317382812 -239.9810028076172,127.02200317382812 C-239.9810028076172,146.68499755859375 -224.04200744628906,162.62399291992188 -204.3800048828125,162.62399291992188 C-204.3800048828125,162.62399291992188 204.37899780273438,162.62399291992188 204.37899780273438,162.62399291992188 C224.04100036621094,162.62399291992188 239.9810028076172,146.68499755859375 239.9810028076172,127.02200317382812 C239.9810028076172,127.02200317382812 239.9810028076172,-158.66799926757812 239.9810028076172,-158.66799926757812 C239.9810028076172,-160.00599670410156 239.9010009765625,-161.3249969482422 239.75599670410156,-162.62399291992188 C239.75599670410156,-162.62399291992188 -239.7570037841797,-162.62399291992188 -239.7570037841797,-162.62399291992188z"/><path stroke-linecap="round" stroke-linejoin="round" fill-opacity="0" stroke="rgb(25,25,25)" stroke-opacity="1" stroke-width="1" d=" M-239.7570037841797,-162.62399291992188 C-239.9010009765625,-161.3249969482422 -239.9810028076172,-160.00599670410156 -239.9810028076172,-158.66799926757812 C-239.9810028076172,-158.66799926757812 -239.9810028076172,127.02200317382812 -239.9810028076172,127.02200317382812 C-239.9810028076172,146.68499755859375 -224.04200744628906,162.62399291992188 -204.3800048828125,162.62399291992188 C-204.3800048828125,162.62399291992188 204.37899780273438,162.62399291992188 204.37899780273438,162.62399291992188 C224.04100036621094,162.62399291992188 239.9810028076172,146.68499755859375 239.9810028076172,127.02200317382812 C239.9810028076172,127.02200317382812 239.9810028076172,-158.66799926757812 239.9810028076172,-158.66799926757812 C239.9810028076172,-160.00599670410156 239.9010009765625,-161.3249969482422 239.75599670410156,-162.62399291992188 C239.75599670410156,-162.62399291992188 -239.7570037841797,-162.62399291992188 -239.7570037841797,-162.62399291992188z"/></g><g opacity="1" transform="matrix(1,0,0,1,580.9219970703125,329.7850036621094)"><path fill="rgb(14,14,14)" fill-opacity="1" d=" M204.3800048828125,-15.822999954223633 C204.3800048828125,-15.822999954223633 -204.37899780273438,-15.822999954223633 -204.37899780273438,-15.822999954223633 C-222.7030029296875,-15.822999954223633 -237.78700256347656,-1.9769999980926514 -239.75599670410156,15.822999954223633 C-239.75599670410156,15.822999954223633 239.75599670410156,15.822999954223633 239.75599670410156,15.822999954223633 C237.78700256347656,-1.9769999980926514 222.70399475097656,-15.822999954223633 204.3800048828125,-15.822999954223633z"/><path stroke-linecap="round" stroke-linejoin="round" fill-opacity="0" stroke="rgb(25,25,25)" stroke-opacity="1" stroke-width="1" d=" M204.3800048828125,-15.822999954223633 C204.3800048828125,-15.822999954223633 -204.37899780273438,-15.822999954223633 -204.37899780273438,-15.822999954223633 C-222.7030029296875,-15.822999954223633 -237.78700256347656,-1.9769999980926514 -239.75599670410156,15.822999954223633 C-239.75599670410156,15.822999954223633 239.75599670410156,15.822999954223633 239.75599670410156,15.822999954223633 C237.78700256347656,-1.9769999980926514 222.70399475097656,-15.822999954223633 204.3800048828125,-15.822999954223633z"/></g><g opacity="1" transform="matrix(1,0,0,1,472.864013671875,509.99200439453125)"><path fill="rgb(250,250,250)" fill-opacity="1" d=" M98.51799774169922,131.85699462890625 C98.51799774169922,131.85699462890625 -98.51799774169922,131.85699462890625 -98.51799774169922,131.85699462890625 C-98.51799774169922,131.85699462890625 -98.51799774169922,-131.85699462890625 -98.51799774169922,-131.85699462890625 C-98.51799774169922,-131.85699462890625 98.51799774169922,-131.85699462890625 98.51799774169922,-131.85699462890625 C98.51799774169922,-131.85699462890625 98.51799774169922,131.85699462890625 98.51799774169922,131.85699462890625z"/><path stroke-linecap="round" stroke-linejoin="round" fill-opacity="0" stroke="rgb(25,25,25)" stroke-opacity="1" stroke-width="1" d=" M98.51799774169922,131.85699462890625 C98.51799774169922,131.85699462890625 -98.51799774169922,131.85699462890625 -98.51799774169922,131.85699462890625 C-98.51799774169922,131.85699462890625 -98.51799774169922,-131.85699462890625 -98.51799774169922,-131.85699462890625 C-98.51799774169922,-131.85699462890625 98.51799774169922,-131.85699462890625 98.51799774169922,-131.85699462890625 C98.51799774169922,-131.85699462890625 98.51799774169922,131.85699462890625 98.51799774169922,131.85699462890625z"/></g><g opacity="1" transform="matrix(1,0,0,1,675.2080078125,509.99200439453125)"><path fill="rgb(250,250,250)" fill-opacity="1" d=" M73.61199951171875,131.85699462890625 C73.61199951171875,131.85699462890625 -73.61299896240234,131.85699462890625 -73.61299896240234,131.85699462890625 C-73.61299896240234,131.85699462890625 -73.61299896240234,-131.85699462890625 -73.61299896240234,-131.85699462890625 C-73.61299896240234,-131.85699462890625 73.61199951171875,-131.85699462890625 73.61199951171875,-131.85699462890625 C73.61199951171875,-131.85699462890625 73.61199951171875,131.85699462890625 73.61199951171875,131.85699462890625z"/><path stroke-linecap="round" stroke-linejoin="round" fill-opacity="0" stroke="rgb(25,25,25)" stroke-opacity="1" stroke-width="1" d=" M73.61199951171875,131.85699462890625 C73.61199951171875,131.85699462890625 -73.61299896240234,131.85699462890625 -73.61299896240234,131.85699462890625 C-73.61299896240234,131.85699462890625 -73.61299896240234,-131.85699462890625 -73.61299896240234,-131.85699462890625 C-73.61299896240234,-131.85699462890625 73.61199951171875,-131.85699462890625 73.61199951171875,-131.85699462890625 C73.61199951171875,-131.85699462890625 73.61199951171875,131.85699462890625 73.61199951171875,131.85699462890625z"/></g><g opacity="1" transform="matrix(1,0,0,1,0,0)"><path fill="rgb(250,250,250)" fill-opacity="1" d=" M769.3319702148438,345.6080017089844 C769.3319702148438,345.6080017089844 769.3319702148438,670.8560180664062 769.3319702148438,670.8560180664062"/><path stroke-linecap="round" stroke-linejoin="round" fill-opacity="0" stroke="rgb(25,25,25)" stroke-opacity="1" stroke-width="1" d=" M769.3319702148438,345.6080017089844 C769.3319702148438,345.6080017089844 769.3319702148438,670.8560180664062 769.3319702148438,670.8560180664062"/></g><g opacity="1" transform="matrix(1,0,0,1,794.8250122070312,383.4070129394531)"><path fill="rgb(250,250,250)" fill-opacity="1" d=" M7.326000213623047,0 C7.326000213623047,-4.046000003814697 4.045000076293945,-7.326000213623047 -0.0010000000474974513,-7.326000213623047 C-4.046999931335449,-7.326000213623047 -7.326000213623047,-4.046000003814697 -7.326000213623047,0 C-7.326000213623047,4.045000076293945 -4.046999931335449,7.326000213623047 -0.0010000000474974513,7.326000213623047 C4.045000076293945,7.326000213623047 7.326000213623047,4.045000076293945 7.326000213623047,0z"/><path stroke-linecap="round" stroke-linejoin="round" fill-opacity="0" stroke="rgb(25,25,25)" stroke-opacity="1" stroke-width="1" d=" M7.326000213623047,0 C7.326000213623047,-4.046000003814697 4.045000076293945,-7.326000213623047 -0.0010000000474974513,-7.326000213623047 C-4.046999931335449,-7.326000213623047 -7.326000213623047,-4.046000003814697 -7.326000213623047,0 C-7.326000213623047,4.045000076293945 -4.046999931335449,7.326000213623047 -0.0010000000474974513,7.326000213623047 C4.045000076293945,7.326000213623047 7.326000213623047,4.045000076293945 7.326000213623047,0z"/></g><g opacity="1" transform="matrix(1,0,0,1,794.8250122070312,442.4989929199219)"><path fill="rgb(250,250,250)" fill-opacity="1" d=" M7.326000213623047,0 C7.326000213623047,-4.046000003814697 4.045000076293945,-7.326000213623047 -0.0010000000474974513,-7.326000213623047 C-4.046999931335449,-7.326000213623047 -7.326000213623047,-4.046000003814697 -7.326000213623047,0 C-7.326000213623047,4.046000003814697 -4.046999931335449,7.326000213623047 -0.0010000000474974513,7.326000213623047 C4.045000076293945,7.326000213623047 7.326000213623047,4.046000003814697 7.326000213623047,0z"/><path stroke-linecap="round" stroke-linejoin="round" fill-opacity="0" stroke="rgb(25,25,25)" stroke-opacity="1" stroke-width="1" d=" M7.326000213623047,0 C7.326000213623047,-4.046000003814697 4.045000076293945,-7.326000213623047 -0.0010000000474974513,-7.326000213623047 C-4.046999931335449,-7.326000213623047 -7.326000213623047,-4.046000003814697 -7.326000213623047,0 C-7.326000213623047,4.046000003814697 -4.046999931335449,7.326000213623047 -0.0010000000474974513,7.326000213623047 C4.045000076293945,7.326000213623047 7.326000213623047,4.046000003814697 7.326000213623047,0z"/></g><g opacity="1" transform="matrix(1,0,0,1,794.8250122070312,501.5920104980469)"><path fill="rgb(250,250,250)" fill-opacity="1" d=" M7.326000213623047,-0.0010000000474974513 C7.326000213623047,-4.046000003814697 4.045000076293945,-7.326000213623047 -0.0010000000474974513,-7.326000213623047 C-4.046999931335449,-7.326000213623047 -7.326000213623047,-4.046000003814697 -7.326000213623047,-0.0010000000474974513 C-7.326000213623047,4.045000076293945 -4.046999931335449,7.326000213623047 -0.0010000000474974513,7.326000213623047 C4.045000076293945,7.326000213623047 7.326000213623047,4.045000076293945 7.326000213623047,-0.0010000000474974513z"/><path stroke-linecap="round" stroke-linejoin="round" fill-opacity="0" stroke="rgb(25,25,25)" stroke-opacity="1" stroke-width="1" d=" M7.326000213623047,-0.0010000000474974513 C7.326000213623047,-4.046000003814697 4.045000076293945,-7.326000213623047 -0.0010000000474974513,-7.326000213623047 C-4.046999931335449,-7.326000213623047 -7.326000213623047,-4.046000003814697 -7.326000213623047,-0.0010000000474974513 C-7.326000213623047,4.045000076293945 -4.046999931335449,7.326000213623047 -0.0010000000474974513,7.326000213623047 C4.045000076293945,7.326000213623047 7.326000213623047,4.045000076293945 7.326000213623047,-0.0010000000474974513z"/></g><g opacity="1" transform="matrix(1,0,0,1,794.8250122070312,560.6829833984375)"><path fill="rgb(14,14,14)" fill-opacity="1" d=" M7.326000213623047,0 C7.326000213623047,-4.046000003814697 4.045000076293945,-7.326000213623047 -0.0010000000474974513,-7.326000213623047 C-4.046999931335449,-7.326000213623047 -7.326000213623047,-4.046000003814697 -7.326000213623047,0 C-7.326000213623047,4.045000076293945 -4.046999931335449,7.326000213623047 -0.0010000000474974513,7.326000213623047 C4.045000076293945,7.326000213623047 7.326000213623047,4.045000076293945 7.326000213623047,0z"/><path stroke-linecap="round" stroke-linejoin="round" fill-opacity="0" stroke="rgb(25,25,25)" stroke-opacity="1" stroke-width="1" d=" M7.326000213623047,0 C7.326000213623047,-4.046000003814697 4.045000076293945,-7.326000213623047 -0.0010000000474974513,-7.326000213623047 C-4.046999931335449,-7.326000213623047 -7.326000213623047,-4.046000003814697 -7.326000213623047,0 C-7.326000213623047,4.045000076293945 -4.046999931335449,7.326000213623047 -0.0010000000474974513,7.326000213623047 C4.045000076293945,7.326000213623047 7.326000213623047,4.045000076293945 7.326000213623047,0z"/></g></g><g transform="matrix(1,0,0,1,0,0)" opacity="1" style="display: block;"><g opacity="1" transform="matrix(1,0,0,1,694.7589721679688,391.760009765625)"><path fill="rgb(250,250,250)" fill-opacity="1" d=" M37.36000061035156,3.369999885559082 C37.36000061035156,3.369999885559082 -37.36000061035156,3.369999885559082 -37.36000061035156,3.369999885559082 C-37.36000061035156,3.369999885559082 -37.36000061035156,-3.369999885559082 -37.36000061035156,-3.369999885559082 C-37.36000061035156,-3.369999885559082 37.36000061035156,-3.369999885559082 37.36000061035156,-3.369999885559082 C37.36000061035156,-3.369999885559082 37.36000061035156,3.369999885559082 37.36000061035156,3.369999885559082z"/><path stroke-linecap="round" stroke-linejoin="round" fill-opacity="0" stroke="rgb(25,25,25)" stroke-opacity="1" stroke-width="1" d=" M37.36000061035156,3.369999885559082 C37.36000061035156,3.369999885559082 -37.36000061035156,3.369999885559082 -37.36000061035156,3.369999885559082 C-37.36000061035156,3.369999885559082 -37.36000061035156,-3.369999885559082 -37.36000061035156,-3.369999885559082 C-37.36000061035156,-3.369999885559082 37.36000061035156,-3.369999885559082 37.36000061035156,-3.369999885559082 C37.36000061035156,-3.369999885559082 37.36000061035156,3.369999885559082 37.36000061035156,3.369999885559082z"/></g><g opacity="1" transform="matrix(1,0,0,1,677.531005859375,415.9679870605469)"><path fill="rgb(250,250,250)" fill-opacity="1" d=" M54.4010009765625,3.369999885559082 C54.4010009765625,3.369999885559082 -54.4010009765625,3.369999885559082 -54.4010009765625,3.369999885559082 C-54.4010009765625,3.369999885559082 -54.4010009765625,-3.369999885559082 -54.4010009765625,-3.369999885559082 C-54.4010009765625,-3.369999885559082 54.4010009765625,-3.369999885559082 54.4010009765625,-3.369999885559082 C54.4010009765625,-3.369999885559082 54.4010009765625,3.369999885559082 54.4010009765625,3.369999885559082z"/><path stroke-linecap="round" stroke-linejoin="round" fill-opacity="0" stroke="rgb(25,25,25)" stroke-opacity="1" stroke-width="1" d=" M54.4010009765625,3.369999885559082 C54.4010009765625,3.369999885559082 -54.4010009765625,3.369999885559082 -54.4010009765625,3.369999885559082 C-54.4010009765625,3.369999885559082 -54.4010009765625,-3.369999885559082 -54.4010009765625,-3.369999885559082 C-54.4010009765625,-3.369999885559082 54.4010009765625,-3.369999885559082 54.4010009765625,-3.369999885559082 C54.4010009765625,-3.369999885559082 54.4010009765625,3.369999885559082 54.4010009765625,3.369999885559082z"/></g><g opacity="1" transform="matrix(1,0,0,1,677.531005859375,437.9590148925781)"><path fill="rgb(250,250,250)" fill-opacity="1" d=" M54.4010009765625,3.369999885559082 C54.4010009765625,3.369999885559082 -54.4010009765625,3.369999885559082 -54.4010009765625,3.369999885559082 C-54.4010009765625,3.369999885559082 -54.4010009765625,-3.369999885559082 -54.4010009765625,-3.369999885559082 C-54.4010009765625,-3.369999885559082 54.4010009765625,-3.369999885559082 54.4010009765625,-3.369999885559082 C54.4010009765625,-3.369999885559082 54.4010009765625,3.369999885559082 54.4010009765625,3.369999885559082z"/><path stroke-linecap="round" stroke-linejoin="round" fill-opacity="0" stroke="rgb(25,25,25)" stroke-opacity="1" stroke-width="1" d=" M54.4010009765625,3.369999885559082 C54.4010009765625,3.369999885559082 -54.4010009765625,3.369999885559082 -54.4010009765625,3.369999885559082 C-54.4010009765625,3.369999885559082 -54.4010009765625,-3.369999885559082 -54.4010009765625,-3.369999885559082 C-54.4010009765625,-3.369999885559082 54.4010009765625,-3.369999885559082 54.4010009765625,-3.369999885559082 C54.4010009765625,-3.369999885559082 54.4010009765625,3.369999885559082 54.4010009765625,3.369999885559082z"/></g><g opacity="1" transform="matrix(1,0,0,1,677.531005859375,459.9490051269531)"><path fill="rgb(250,250,250)" fill-opacity="1" d=" M54.4010009765625,3.369999885559082 C54.4010009765625,3.369999885559082 -54.4010009765625,3.369999885559082 -54.4010009765625,3.369999885559082 C-54.4010009765625,3.369999885559082 -54.4010009765625,-3.369999885559082 -54.4010009765625,-3.369999885559082 C-54.4010009765625,-3.369999885559082 54.4010009765625,-3.369999885559082 54.4010009765625,-3.369999885559082 C54.4010009765625,-3.369999885559082 54.4010009765625,3.369999885559082 54.4010009765625,3.369999885559082z"/><path stroke-linecap="round" stroke-linejoin="round" fill-opacity="0" stroke="rgb(25,25,25)" stroke-opacity="1" stroke-width="1" d=" M54.4010009765625,3.369999885559082 C54.4010009765625,3.369999885559082 -54.4010009765625,3.369999885559082 -54.4010009765625,3.369999885559082 C-54.4010009765625,3.369999885559082 -54.4010009765625,-3.369999885559082 -54.4010009765625,-3.369999885559082 C-54.4010009765625,-3.369999885559082 54.4010009765625,-3.369999885559082 54.4010009765625,-3.369999885559082 C54.4010009765625,-3.369999885559082 54.4010009765625,3.369999885559082 54.4010009765625,3.369999885559082z"/></g><g opacity="1" transform="matrix(1,0,0,1,677.531005859375,481.9410095214844)"><path fill="rgb(250,250,250)" fill-opacity="1" d=" M54.4010009765625,3.369999885559082 C54.4010009765625,3.369999885559082 -54.4010009765625,3.369999885559082 -54.4010009765625,3.369999885559082 C-54.4010009765625,3.369999885559082 -54.4010009765625,-3.369999885559082 -54.4010009765625,-3.369999885559082 C-54.4010009765625,-3.369999885559082 54.4010009765625,-3.369999885559082 54.4010009765625,-3.369999885559082 C54.4010009765625,-3.369999885559082 54.4010009765625,3.369999885559082 54.4010009765625,3.369999885559082z"/><path stroke-linecap="round" stroke-linejoin="round" fill-opacity="0" stroke="rgb(25,25,25)" stroke-opacity="1" stroke-width="1" d=" M54.4010009765625,3.369999885559082 C54.4010009765625,3.369999885559082 -54.4010009765625,3.369999885559082 -54.4010009765625,3.369999885559082 C-54.4010009765625,3.369999885559082 -54.4010009765625,-3.369999885559082 -54.4010009765625,-3.369999885559082 C-54.4010009765625,-3.369999885559082 54.4010009765625,-3.369999885559082 54.4010009765625,-3.369999885559082 C54.4010009765625,-3.369999885559082 54.4010009765625,3.369999885559082 54.4010009765625,3.369999885559082z"/></g><g opacity="1" transform="matrix(1,0,0,1,633.666015625,373.15301513671875)"><path fill="rgb(14,14,14)" fill-opacity="1" d=" M-19.924999237060547,-21.976999282836914 C-19.924999237060547,-21.976999282836914 -19.924999237060547,-14.357000350952148 -19.924999237060547,-14.357000350952148 C-19.924999237060547,-14.357000350952148 -4.249000072479248,-14.357000350952148 -4.249000072479248,-14.357000350952148 C-4.249000072479248,-14.357000350952148 -4.249000072479248,21.976999282836914 -4.249000072479248,21.976999282836914 C-4.249000072479248,21.976999282836914 4.248000144958496,21.976999282836914 4.248000144958496,21.976999282836914 C4.248000144958496,21.976999282836914 4.248000144958496,-14.357000350952148 4.248000144958496,-14.357000350952148 C4.248000144958496,-14.357000350952148 19.924999237060547,-14.357000350952148 19.924999237060547,-14.357000350952148 C19.924999237060547,-14.357000350952148 19.924999237060547,-21.976999282836914 19.924999237060547,-21.976999282836914 C19.924999237060547,-21.976999282836914 -19.924999237060547,-21.976999282836914 -19.924999237060547,-21.976999282836914z"/><path stroke-linecap="round" stroke-linejoin="round" fill-opacity="0" stroke="rgb(25,25,25)" stroke-opacity="1" stroke-width="1" d=" M-19.924999237060547,-21.976999282836914 C-19.924999237060547,-21.976999282836914 -19.924999237060547,-14.357000350952148 -19.924999237060547,-14.357000350952148 C-19.924999237060547,-14.357000350952148 -4.249000072479248,-14.357000350952148 -4.249000072479248,-14.357000350952148 C-4.249000072479248,-14.357000350952148 -4.249000072479248,21.976999282836914 -4.249000072479248,21.976999282836914 C-4.249000072479248,21.976999282836914 4.248000144958496,21.976999282836914 4.248000144958496,21.976999282836914 C4.248000144958496,21.976999282836914 4.248000144958496,-14.357000350952148 4.248000144958496,-14.357000350952148 C4.248000144958496,-14.357000350952148 19.924999237060547,-14.357000350952148 19.924999237060547,-14.357000350952148 C19.924999237060547,-14.357000350952148 19.924999237060547,-21.976999282836914 19.924999237060547,-21.976999282836914 C19.924999237060547,-21.976999282836914 -19.924999237060547,-21.976999282836914 -19.924999237060547,-21.976999282836914z"/></g></g><g transform="matrix(1,0,0,1,0,0)" opacity="1" style="display: block;"><g opacity="1" transform="matrix(1,0,0,1,298.3609924316406,713.406982421875)"><path fill="rgb(250,250,250)" fill-opacity="1" d=" M33.895999908447266,0 C33.895999908447266,18.719999313354492 18.719999313354492,33.895999908447266 0,33.895999908447266 C-18.72100067138672,33.895999908447266 -33.895999908447266,18.719999313354492 -33.895999908447266,0 C-33.895999908447266,-18.72100067138672 -18.72100067138672,-33.895999908447266 0,-33.895999908447266 C18.719999313354492,-33.895999908447266 33.895999908447266,-18.72100067138672 33.895999908447266,0z"/><path stroke-linecap="round" stroke-linejoin="round" fill-opacity="0" stroke="rgb(25,25,25)" stroke-opacity="1" stroke-width="1" d=" M33.895999908447266,0 C33.895999908447266,18.719999313354492 18.719999313354492,33.895999908447266 0,33.895999908447266 C-18.72100067138672,33.895999908447266 -33.895999908447266,18.719999313354492 -33.895999908447266,0 C-33.895999908447266,-18.72100067138672 -18.72100067138672,-33.895999908447266 0,-33.895999908447266 C18.719999313354492,-33.895999908447266 33.895999908447266,-18.72100067138672 33.895999908447266,0z"/></g><g opacity="1" transform="matrix(1,0,0,1,298.2900085449219,713.02197265625)"><path fill="rgb(250,250,250)" fill-opacity="1" d=" M8.361000061035156,16.83099937438965 C5.355999946594238,18.416000366210938 2.2960000038146973,19.016000747680664 -1.3660000562667847,19.016000747680664 C-10.32800006866455,19.016000747680664 -17.92300033569336,12.458999633789062 -17.92300033569336,1.968000054359436 C-17.92300033569336,-9.289999961853027 -10.109000205993652,-19.016000747680664 2.0230000019073486,-19.016000747680664 C11.531000137329102,-19.016000747680664 17.923999786376953,-12.350000381469727 17.923999786376953,-3.2239999771118164 C17.923999786376953,4.9720001220703125 13.333999633789062,9.781999588012695 8.196999549865723,9.781999588012695 C6.01200008392334,9.781999588012695 3.990000009536743,8.307000160217285 4.1539998054504395,4.9730000495910645 C4.1539998054504395,4.9730000495910645 3.934999942779541,4.9730000495910645 3.934999942779541,4.9730000495910645 C2.0230000019073486,8.197999954223633 -0.4909999966621399,9.781999588012695 -3.7699999809265137,9.781999588012695 C-6.939000129699707,9.781999588012695 -9.67199993133545,7.2129998207092285 -9.67199993133545,2.8959999084472656 C-9.67199993133545,-3.88100004196167 -4.315999984741211,-10.055000305175781 3.2790000438690186,-10.055000305175781 C5.629000186920166,-10.055000305175781 7.705999851226807,-9.562000274658203 9.126999855041504,-8.906999588012695 C9.126999855041504,-8.906999588012695 7.269000053405762,0.984000027179718 7.269000053405762,0.984000027179718 C6.448999881744385,5.13700008392334 7.105000019073486,7.048999786376953 8.907999992370605,7.104000091552734 C11.694999694824219,7.158999919891357 14.8100004196167,3.444000005722046 14.8100004196167,-2.8959999084472656 C14.8100004196167,-10.819000244140625 10.055000305175781,-16.503999710083008 1.5850000381469727,-16.503999710083008 C-7.322000026702881,-16.503999710083008 -14.809000015258789,-9.45300006866455 -14.809000015258789,1.6399999856948853 C-14.809000015258789,10.765999794006348 -8.85200023651123,16.39299964904785 -0.7649999856948853,16.39299964904785 C2.3499999046325684,16.39299964904785 5.247000217437744,15.73900032043457 7.486999988555908,14.482000350952148 C7.486999988555908,14.482000350952148 8.361000061035156,16.83099937438965 8.361000061035156,16.83099937438965z M5.355999946594238,-6.776000022888184 C4.809999942779541,-6.939000129699707 3.880000114440918,-7.158999919891357 2.624000072479248,-7.158999919891357 C-2.184999942779541,-7.158999919891357 -6.065000057220459,-2.624000072479248 -6.065000057220459,2.677000045776367 C-6.065000057220459,5.080999851226807 -4.86299991607666,6.830999851226807 -2.4579999446868896,6.830999851226807 C0.7110000252723694,6.830999851226807 3.6070001125335693,2.7869999408721924 4.209000110626221,-0.6000000238418579 C4.209000110626221,-0.6000000238418579 5.355999946594238,-6.776000022888184 5.355999946594238,-6.776000022888184z"/><path stroke-linecap="round" stroke-linejoin="round" fill-opacity="0" stroke="rgb(25,25,25)" stroke-opacity="1" stroke-width="1" d=" M8.361000061035156,16.83099937438965 C5.355999946594238,18.416000366210938 2.2960000038146973,19.016000747680664 -1.3660000562667847,19.016000747680664 C-10.32800006866455,19.016000747680664 -17.92300033569336,12.458999633789062 -17.92300033569336,1.968000054359436 C-17.92300033569336,-9.289999961853027 -10.109000205993652,-19.016000747680664 2.0230000019073486,-19.016000747680664 C11.531000137329102,-19.016000747680664 17.923999786376953,-12.350000381469727 17.923999786376953,-3.2239999771118164 C17.923999786376953,4.9720001220703125 13.333999633789062,9.781999588012695 8.196999549865723,9.781999588012695 C6.01200008392334,9.781999588012695 3.990000009536743,8.307000160217285 4.1539998054504395,4.9730000495910645 C4.1539998054504395,4.9730000495910645 3.934999942779541,4.9730000495910645 3.934999942779541,4.9730000495910645 C2.0230000019073486,8.197999954223633 -0.4909999966621399,9.781999588012695 -3.7699999809265137,9.781999588012695 C-6.939000129699707,9.781999588012695 -9.67199993133545,7.2129998207092285 -9.67199993133545,2.8959999084472656 C-9.67199993133545,-3.88100004196167 -4.315999984741211,-10.055000305175781 3.2790000438690186,-10.055000305175781 C5.629000186920166,-10.055000305175781 7.705999851226807,-9.562000274658203 9.126999855041504,-8.906999588012695 C9.126999855041504,-8.906999588012695 7.269000053405762,0.984000027179718 7.269000053405762,0.984000027179718 C6.448999881744385,5.13700008392334 7.105000019073486,7.048999786376953 8.907999992370605,7.104000091552734 C11.694999694824219,7.158999919891357 14.8100004196167,3.444000005722046 14.8100004196167,-2.8959999084472656 C14.8100004196167,-10.819000244140625 10.055000305175781,-16.503999710083008 1.5850000381469727,-16.503999710083008 C-7.322000026702881,-16.503999710083008 -14.809000015258789,-9.45300006866455 -14.809000015258789,1.6399999856948853 C-14.809000015258789,10.765999794006348 -8.85200023651123,16.39299964904785 -0.7649999856948853,16.39299964904785 C2.3499999046325684,16.39299964904785 5.247000217437744,15.73900032043457 7.486999988555908,14.482000350952148 C7.486999988555908,14.482000350952148 8.361000061035156,16.83099937438965 8.361000061035156,16.83099937438965z M5.355999946594238,-6.776000022888184 C4.809999942779541,-6.939000129699707 3.880000114440918,-7.158999919891357 2.624000072479248,-7.158999919891357 C-2.184999942779541,-7.158999919891357 -6.065000057220459,-2.624000072479248 -6.065000057220459,2.677000045776367 C-6.065000057220459,5.080999851226807 -4.86299991607666,6.830999851226807 -2.4579999446868896,6.830999851226807 C0.7110000252723694,6.830999851226807 3.6070001125335693,2.7869999408721924 4.209000110626221,-0.6000000238418579 C4.209000110626221,-0.6000000238418579 5.355999946594238,-6.776000022888184 5.355999946594238,-6.776000022888184z"/></g></g></g><g clip-path="url(#__lottie_element_10686)" transform="matrix(1,0,0,1,242,306)" opacity="1" style="display: block;"><g transform="matrix(1,0,0,1,-240,-304)" opacity="1" style="display: block;"><g opacity="1" transform="matrix(1,0,0,1,366.6730041503906,428.09100341796875)"><path fill="rgb(250,250,250)" fill-opacity="1" d=" M45.9010009765625,-36.74300003051758 C45.9010009765625,-36.74300003051758 -45.9010009765625,-36.74300003051758 -45.9010009765625,-36.74300003051758 C-54.744998931884766,-36.74300003051758 -61.91400146484375,-29.573999404907227 -61.91400146484375,-20.731000900268555 C-61.91400146484375,-20.731000900268555 -61.91400146484375,-1.4490000009536743 -61.91400146484375,-1.4490000009536743 C-61.91400146484375,7.394999980926514 -54.744998931884766,14.564000129699707 -45.9010009765625,14.564000129699707 C-45.9010009765625,14.564000129699707 27.413999557495117,14.564000129699707 27.413999557495117,14.564000129699707 C30.6299991607666,19.240999221801758 36.05799865722656,26.875 40.74700164794922,33.42900085449219 C43.11800003051758,36.74300003051758 48.34299850463867,34.715999603271484 47.862998962402344,30.670000076293945 C47.862998962402344,30.670000076293945 45.95199966430664,14.562999725341797 45.95199966430664,14.562999725341797 C54.77199935913086,14.534000396728516 61.91400146484375,7.377999782562256 61.91400146484375,-1.4490000009536743 C61.91400146484375,-1.4490000009536743 61.91400146484375,-20.731000900268555 61.91400146484375,-20.731000900268555 C61.91400146484375,-29.573999404907227 54.744998931884766,-36.74300003051758 45.9010009765625,-36.74300003051758z"/><path stroke-linecap="round" stroke-linejoin="round" fill-opacity="0" stroke="rgb(25,25,25)" stroke-opacity="1" stroke-width="1" d=" M45.9010009765625,-36.74300003051758 C45.9010009765625,-36.74300003051758 -45.9010009765625,-36.74300003051758 -45.9010009765625,-36.74300003051758 C-54.744998931884766,-36.74300003051758 -61.91400146484375,-29.573999404907227 -61.91400146484375,-20.731000900268555 C-61.91400146484375,-20.731000900268555 -61.91400146484375,-1.4490000009536743 -61.91400146484375,-1.4490000009536743 C-61.91400146484375,7.394999980926514 -54.744998931884766,14.564000129699707 -45.9010009765625,14.564000129699707 C-45.9010009765625,14.564000129699707 27.413999557495117,14.564000129699707 27.413999557495117,14.564000129699707 C30.6299991607666,19.240999221801758 36.05799865722656,26.875 40.74700164794922,33.42900085449219 C43.11800003051758,36.74300003051758 48.34299850463867,34.715999603271484 47.862998962402344,30.670000076293945 C47.862998962402344,30.670000076293945 45.95199966430664,14.562999725341797 45.95199966430664,14.562999725341797 C54.77199935913086,14.534000396728516 61.91400146484375,7.377999782562256 61.91400146484375,-1.4490000009536743 C61.91400146484375,-1.4490000009536743 61.91400146484375,-20.731000900268555 61.91400146484375,-20.731000900268555 C61.91400146484375,-29.573999404907227 54.744998931884766,-36.74300003051758 45.9010009765625,-36.74300003051758z"/></g><g opacity="1" transform="matrix(1,0,0,1,364.4639892578125,405.36700439453125)"><path fill="rgb(250,250,250)" fill-opacity="1" d=" M18.574926376342773,3.7006819248199463 C18.574926376342773,3.7006819248199463 -40.992000579833984,3.624000072479248 -40.992000579833984,3.624000072479248 C-40.992000579833984,3.624000072479248 -40.992000579833984,-3.624000072479248 -40.992000579833984,-3.624000072479248 C-40.992000579833984,-3.624000072479248 18.574926376342773,-3.54731822013855 18.574926376342773,-3.54731822013855 C18.574926376342773,-3.54731822013855 18.574926376342773,3.7006819248199463 18.574926376342773,3.7006819248199463z"/><path stroke-linecap="round" stroke-linejoin="round" fill-opacity="0" stroke="rgb(25,25,25)" stroke-opacity="1" stroke-width="1" d=" M18.574926376342773,3.7006819248199463 C18.574926376342773,3.7006819248199463 -40.992000579833984,3.624000072479248 -40.992000579833984,3.624000072479248 C-40.992000579833984,3.624000072479248 -40.992000579833984,-3.624000072479248 -40.992000579833984,-3.624000072479248 C-40.992000579833984,-3.624000072479248 18.574926376342773,-3.54731822013855 18.574926376342773,-3.54731822013855 C18.574926376342773,-3.54731822013855 18.574926376342773,3.7006819248199463 18.574926376342773,3.7006819248199463z"/></g><g opacity="1" transform="matrix(1,0,0,1,364.4639892578125,423.6400146484375)"><path fill="rgb(250,250,250)" fill-opacity="1" d=" M29.353261947631836,3.6697916984558105 C29.353261947631836,3.6697916984558105 -40.992000579833984,3.624000072479248 -40.992000579833984,3.624000072479248 C-40.992000579833984,3.624000072479248 -40.992000579833984,-3.624000072479248 -40.992000579833984,-3.624000072479248 C-40.992000579833984,-3.624000072479248 29.353261947631836,-3.577826738357544 29.353261947631836,-3.577826738357544 C29.353261947631836,-3.577826738357544 29.353261947631836,3.6697916984558105 29.353261947631836,3.6697916984558105z"/><path stroke-linecap="round" stroke-linejoin="round" fill-opacity="0" stroke="rgb(25,25,25)" stroke-opacity="1" stroke-width="1" d=" M29.353261947631836,3.6697916984558105 C29.353261947631836,3.6697916984558105 -40.992000579833984,3.624000072479248 -40.992000579833984,3.624000072479248 C-40.992000579833984,3.624000072479248 -40.992000579833984,-3.624000072479248 -40.992000579833984,-3.624000072479248 C-40.992000579833984,-3.624000072479248 29.353261947631836,-3.577826738357544 29.353261947631836,-3.577826738357544 C29.353261947631836,-3.577826738357544 29.353261947631836,3.6697916984558105 29.353261947631836,3.6697916984558105z"/></g></g><g transform="matrix(0.9991424679756165,-0.04140555486083031,0.04140555486083031,0.9991424679756165,-268.8972473144531,-278.0865783691406)" opacity="1" style="display: block;"><g opacity="1" transform="matrix(1,0,0,1,490.20098876953125,560.1329956054688)"><path fill="rgb(0,255,131)" fill-opacity="1" d=" M-38.042999267578125,-36.737998962402344 C-31.323999404907227,-60.095001220703125 -12.20199966430664,-53.404998779296875 -5.697999954223633,-47.00400161743164 C1.100000023841858,-40.31399917602539 24.503000259399414,5.300000190734863 31.422000885009766,15.609999656677246 C44.52399826049805,33.14400100708008 29.836999893188477,60.095001220703125 13.666999816894531,49.012001037597656 C-6.306000232696533,36.77299880981445 -44.52299880981445,-14.213000297546387 -38.042999267578125,-36.737998962402344z"/><path stroke-linecap="round" stroke-linejoin="round" fill-opacity="0" stroke="rgb(25,25,25)" stroke-opacity="1" stroke-width="0.959" d=" M-38.042999267578125,-36.737998962402344 C-31.323999404907227,-60.095001220703125 -12.20199966430664,-53.404998779296875 -5.697999954223633,-47.00400161743164 C1.100000023841858,-40.31399917602539 24.503000259399414,5.300000190734863 31.422000885009766,15.609999656677246 C44.52399826049805,33.14400100708008 29.836999893188477,60.095001220703125 13.666999816894531,49.012001037597656 C-6.306000232696533,36.77299880981445 -44.52299880981445,-14.213000297546387 -38.042999267578125,-36.737998962402344z"/></g></g><g transform="matrix(0.9973807334899902,-0.07233139127492905,0.07233139127492905,0.9973807334899902,-286.25689697265625,-261.21221923828125)" opacity="1" style="display: block;"><g opacity="1" transform="matrix(1,0,0,1,528.781005859375,563.968017578125)"><path fill="rgb(0,255,131)" fill-opacity="1" d=" M-28.030000686645508,14.305000305175781 C-16.761999130249023,1.9730000495910645 7.763000011444092,-30.21299934387207 22.525999069213867,-50.12900161743164 C33.965999603271484,-56.26599884033203 41.84700012207031,-38.84199905395508 41.84700012207031,-38.84199905395508 C41.84700012207031,-38.84199905395508 11.645000457763672,29.16900062561035 -7.151000022888184,42.775001525878906 C-25.78700065612793,56.26599884033203 -41.84700012207031,29.427000045776367 -28.030000686645508,14.305000305175781z"/></g><g opacity="1" transform="matrix(1,0,0,1,535.6900024414062,557.5419921875)"><path stroke-linecap="round" stroke-linejoin="round" fill-opacity="0" stroke="rgb(25,25,25)" stroke-opacity="1" stroke-width="0.959" d=" M-34.93899917602539,20.731000900268555 C-23.614999771118164,8.451000213623047 0.8550000190734863,-23.78700065612793 15.618000030517578,-43.702999114990234 C27.38599967956543,-49.20100021362305 34.93899917602539,-32.41600036621094 34.93899917602539,-32.41600036621094 C34.93899917602539,-32.41600036621094 4.736000061035156,35.595001220703125 -14.0600004196167,49.20100021362305"/></g></g><g transform="matrix(0.9990906119346619,-0.04263795539736748,0.04263795539736748,0.9990906119346619,-271.6334533691406,-278.6186218261719)" opacity="1" style="display: block;"><g opacity="1" transform="matrix(1,0,0,1,565.8560180664062,506.1050109863281)"><path fill="rgb(250,250,250)" fill-opacity="1" d=" M5.96999979019165,-13.821999549865723 C5.96999979019165,-13.821999549865723 -0.9950000047683716,-19.933000564575195 -4.97599983215332,-10.409000396728516 C-8.956000328063965,-0.8849999904632568 -14.392999649047852,11.595000267028809 -14.392999649047852,11.595000267028809 C-14.392999649047852,11.595000267028809 -10.432999610900879,19.933000564575195 -4.232999801635742,19.87700080871582 C14.392999649047852,11.595000267028809 5.96999979019165,-13.821999549865723 5.96999979019165,-13.821999549865723z"/><path stroke-linecap="round" stroke-linejoin="round" fill-opacity="0" stroke="rgb(25,25,25)" stroke-opacity="1" stroke-width="0.959" d=" M5.96999979019165,-13.821999549865723 C5.96999979019165,-13.821999549865723 -0.9950000047683716,-19.933000564575195 -4.97599983215332,-10.409000396728516 C-8.956000328063965,-0.8849999904632568 -14.392999649047852,11.595000267028809 -14.392999649047852,11.595000267028809 C-14.392999649047852,11.595000267028809 -10.432999610900879,19.933000564575195 -4.232999801635742,19.87700080871582 C14.392999649047852,11.595000267028809 5.96999979019165,-13.821999549865723 5.96999979019165,-13.821999549865723z"/></g></g><g transform="matrix(0.9990906119346619,-0.04263795539736748,0.04263795539736748,0.9990906119346619,-272.1756286621094,-279.5964050292969)" opacity="1" style="display: block;"><g opacity="1" transform="matrix(1,0,0,1,591.0859985351562,522.9639892578125)"><path fill="rgb(250,250,250)" fill-opacity="1" d=" M-2.7839999198913574,-56.08300018310547 C-2.7839999198913574,-56.08300018310547 -47.909000396728516,26.840999603271484 -47.909000396728516,26.840999603271484 C-47.909000396728516,26.840999603271484 3.36899995803833,56.08300018310547 3.36899995803833,56.08300018310547 C3.36899995803833,56.08300018310547 47.90800094604492,-23.85099983215332 47.90800094604492,-23.85099983215332 C47.90800094604492,-23.85099983215332 -2.7839999198913574,-56.08300018310547 -2.7839999198913574,-56.08300018310547z"/><path stroke-linecap="round" stroke-linejoin="round" fill-opacity="0" stroke="rgb(25,25,25)" stroke-opacity="1" stroke-width="1" d=" M-2.7839999198913574,-56.08300018310547 C-2.7839999198913574,-56.08300018310547 -47.909000396728516,26.840999603271484 -47.909000396728516,26.840999603271484 C-47.909000396728516,26.840999603271484 3.36899995803833,56.08300018310547 3.36899995803833,56.08300018310547 C3.36899995803833,56.08300018310547 47.90800094604492,-23.85099983215332 47.90800094604492,-23.85099983215332 C47.90800094604492,-23.85099983215332 -2.7839999198913574,-56.08300018310547 -2.7839999198913574,-56.08300018310547z"/></g></g><g transform="matrix(0.9990906119346619,-0.04263795539736748,0.04263795539736748,0.9990906119346619,-271.6334533691406,-278.6186218261719)" opacity="1" style="display: block;"><g opacity="1" transform="matrix(1,0,0,1,566.3189697265625,504.7820129394531)"><path fill="rgb(250,250,250)" fill-opacity="1" d=" M-6.923999786376953,8.0600004196167 C-6.923999786376953,8.0600004196167 5.49399995803833,2.815000057220459 6.209000110626221,-2.621999979019165 C6.923999786376953,-8.0600004196167 -1.5839999914169312,-7.560999870300293 -1.5839999914169312,-7.560999870300293 C-1.5839999914169312,-7.560999870300293 -6.923999786376953,8.0600004196167 -6.923999786376953,8.0600004196167z"/></g><g opacity="1" transform="matrix(1,0,0,1,566.5150146484375,504.7820129394531)"><path stroke-linecap="round" stroke-linejoin="round" fill-opacity="0" stroke="rgb(25,25,25)" stroke-opacity="1" stroke-width="0.959" d=" M-1.4450000524520874,-7.548999786376953 C-1.4450000524520874,-7.548999786376953 6.728000164031982,-8.059000015258789 6.013000011444092,-2.621999979019165 C5.298999786376953,2.815000057220459 -6.7270002365112305,8.0600004196167 -6.7270002365112305,8.0600004196167"/></g></g><g transform="matrix(1,0,0,1,-240,-304)" opacity="1" style="display: block;"><g opacity="1" transform="matrix(1,0,0,1,535.9169921875,992.5780029296875)"><path fill="rgb(250,250,250)" fill-opacity="1" d=" M35.9109992980957,23.781999588012695 C36.17599868774414,16.493999481201172 21.468000411987305,7.78000020980835 11.020999908447266,1.4199999570846558 C0.25,-5.13700008392334 -4.290999889373779,-6.410999774932861 -5.307000160217285,-8.569000244140625 C-5.853000164031982,-9.727999687194824 -5.125,-18.139999389648438 -5.307000160217285,-23.000999450683594 C-5.46999979019165,-27.3799991607666 -6.192999839782715,-31.070999145507812 -6.192999839782715,-31.070999145507812 C-6.192999839782715,-31.070999145507812 -36.176998138427734,-28.1560001373291 -36.176998138427734,-28.1560001373291 C-36.176998138427734,-28.1560001373291 -35.86600112915039,-24.648000717163086 -35.34199905395508,-19.606000900268555 C-34.17599868774414,-8.392000198364258 -34.72600173950195,13.281000137329102 -32.5359992980957,18.034000396728516 C-29.363000869750977,24.924999237060547 35.645999908447266,31.070999145507812 35.9109992980957,23.781999588012695z"/><path stroke-linecap="round" stroke-linejoin="round" fill-opacity="0" stroke="rgb(25,25,25)" stroke-opacity="1" stroke-width="1" d=" M35.9109992980957,23.781999588012695 C36.17599868774414,16.493999481201172 21.468000411987305,7.78000020980835 11.020999908447266,1.4199999570846558 C0.25,-5.13700008392334 -4.290999889373779,-6.410999774932861 -5.307000160217285,-8.569000244140625 C-5.853000164031982,-9.727999687194824 -5.125,-18.139999389648438 -5.307000160217285,-23.000999450683594 C-5.46999979019165,-27.3799991607666 -6.192999839782715,-31.070999145507812 -6.192999839782715,-31.070999145507812 C-6.192999839782715,-31.070999145507812 -36.176998138427734,-28.1560001373291 -36.176998138427734,-28.1560001373291 C-36.176998138427734,-28.1560001373291 -35.86600112915039,-24.648000717163086 -35.34199905395508,-19.606000900268555 C-34.17599868774414,-8.392000198364258 -34.72600173950195,13.281000137329102 -32.5359992980957,18.034000396728516 C-29.363000869750977,24.924999237060547 35.645999908447266,31.070999145507812 35.9109992980957,23.781999588012695z"/></g><g opacity="1" transform="matrix(1,0,0,1,515.3839721679688,967.8109741210938)"><path fill="rgb(14,14,14)" fill-opacity="1" d=" M15.22700023651123,1.7660000324249268 C15.22700023651123,1.7660000324249268 15.22700023651123,-6.270999908447266 15.22700023651123,-6.270999908447266 C15.22700023651123,-6.270999908447266 -15.22700023651123,-4.376999855041504 -15.22700023651123,-4.376999855041504 C-15.22700023651123,-4.376999855041504 -14.914999961853027,-0.8690000176429749 -14.390999794006348,4.172999858856201 C-6.159999847412109,6.270999908447266 6.807000160217285,4.557000160217285 15.22700023651123,1.7660000324249268z"/><path stroke-linecap="round" stroke-linejoin="round" fill-opacity="0" stroke="rgb(25,25,25)" stroke-opacity="1" stroke-width="1" d=" M15.22700023651123,1.7660000324249268 C15.22700023651123,1.7660000324249268 15.22700023651123,-6.270999908447266 15.22700023651123,-6.270999908447266 C15.22700023651123,-6.270999908447266 -15.22700023651123,-4.376999855041504 -15.22700023651123,-4.376999855041504 C-15.22700023651123,-4.376999855041504 -14.914999961853027,-0.8690000176429749 -14.390999794006348,4.172999858856201 C-6.159999847412109,6.270999908447266 6.807000160217285,4.557000160217285 15.22700023651123,1.7660000324249268z"/></g></g><g transform="matrix(0.9980791807174683,0.06195107102394104,-0.06195107102394104,0.9980791807174683,-178.94900512695312,-333.89544677734375)" opacity="1" style="display: block;"><g opacity="1" transform="matrix(1,0,0,1,510.5050048828125,870.822998046875)"><path fill="rgb(250,250,250)" fill-opacity="1" d=" M-28.222000122070312,-63.71699905395508 C-33.930999755859375,-39.361000061035156 -21.32699966430664,73.39199829101562 -18.13800048828125,96.36900329589844 C-12.960000038146973,102.4229965209961 23.61400032043457,95.04499816894531 23.61400032043457,95.04499816894531 C23.61400032043457,95.04499816894531 30.01099967956543,-8.73799991607666 33.93000030517578,-69.27200317382812 C33.930999755859375,-69.27899932861328 33.930999755859375,-69.28600311279297 33.930999755859375,-69.29299926757812 C32.45899963378906,-102.4229965209961 -20.952999114990234,-99.43599700927734 -28.222000122070312,-63.71699905395508z"/><path stroke-linecap="round" stroke-linejoin="round" fill-opacity="0" stroke="rgb(25,25,25)" stroke-opacity="1" stroke-width="0.959" d=" M-28.222000122070312,-63.71699905395508 C-33.930999755859375,-39.361000061035156 -21.32699966430664,73.39199829101562 -18.13800048828125,96.36900329589844 C-12.960000038146973,102.4229965209961 23.61400032043457,95.04499816894531 23.61400032043457,95.04499816894531 C23.61400032043457,95.04499816894531 30.01099967956543,-8.73799991607666 33.93000030517578,-69.27200317382812 C33.930999755859375,-69.27899932861328 33.930999755859375,-69.28600311279297 33.930999755859375,-69.29299926757812 C32.45899963378906,-102.4229965209961 -20.952999114990234,-99.43599700927734 -28.222000122070312,-63.71699905395508z"/></g></g><g transform="matrix(0.9980791807174683,-0.06195107102394104,0.06195107102394104,0.9980791807174683,-278.6282653808594,-270.5195007324219)" opacity="1" style="display: block;"><g opacity="1" transform="matrix(1,0,0,1,504.90899658203125,724.510986328125)"><path fill="rgb(250,250,250)" fill-opacity="1" d=" M24.964000701904297,-105.86000061035156 C23.165000915527344,-109.01399993896484 -36.191001892089844,-100.13099670410156 -37.040000915527344,-100.0469970703125 C-37.040000915527344,-100.0469970703125 -39.374000549316406,-77.66899871826172 -41.207000732421875,-60.63399887084961 C-42.33100128173828,-50.18299865722656 -43.20800018310547,-39.3489990234375 -43.111000061035156,-31.59600067138672 C-42.518001556396484,15.78600025177002 -27.892000198364258,65.03700256347656 -22.106000900268555,84.3280029296875 C-16.17300033569336,101.38700103759766 -1.7029999494552612,109.01499938964844 11.729999542236328,107.947998046875 C25.753999710083008,106.83200073242188 38.650001525878906,96.24400329589844 39.527000427246094,77.01899719238281 C43.20800018310547,20.090999603271484 26.76300048828125,-102.70600128173828 24.964000701904297,-105.86000061035156z"/></g><g opacity="1" transform="matrix(1,0,0,1,504.9079895019531,712.1680297851562)"><path stroke-linecap="round" stroke-linejoin="round" fill-opacity="0" stroke="rgb(25,25,25)" stroke-opacity="1" stroke-width="0.959" d=" M39.52799987792969,89.36100006103516 C43.20800018310547,32.43299865722656 26.76300048828125,-90.36399841308594 24.96500015258789,-93.51799774169922 C23.165000915527344,-96.6719970703125 -36.191001892089844,-87.78900146484375 -37.03900146484375,-87.7040023803711 C-37.03900146484375,-87.7040023803711 -39.374000549316406,-65.32599639892578 -41.20600128173828,-48.29199981689453 C-42.33100128173828,-37.840999603271484 -43.20800018310547,-27.006999969482422 -43.111000061035156,-19.253999710083008 C-42.516998291015625,28.128000259399414 -27.892000198364258,77.38099670410156 -22.104999542236328,96.6719970703125"/></g></g><g transform="matrix(1,0,0,1,-240,-304)" opacity="1" style="display: block;"><g opacity="1" transform="matrix(1,0,0,1,444.2980041503906,995.9959716796875)"><path fill="rgb(250,250,250)" fill-opacity="1" d=" M33.803001403808594,17.399999618530273 C29.665000915527344,14.03600025177002 0.953000009059906,-4.748000144958496 -3.5460000038146973,-7.119999885559082 C-5.939000129699707,-9.60099983215332 -5.7769999504089355,-15.204000473022461 -5.182000160217285,-19.614999771118164 C-4.723999977111816,-23.013999938964844 -4.008999824523926,-25.704999923706055 -4.008999824523926,-25.704999923706055 C-4.008999824523926,-25.704999923706055 -29.658000946044922,-29.400999069213867 -29.658000946044922,-29.400999069213867 C-29.658000946044922,-29.400999069213867 -30.531999588012695,-26.78700065612793 -31.69099998474121,-22.825000762939453 C-34.801998138427734,-12.187000274658203 -37.94300079345703,9.651000022888184 -33.805999755859375,15.345000267028809 C-28.1299991607666,23.159000396728516 13.657999992370605,29.402000427246094 24.361000061035156,28.148000717163086 C35.06399917602539,26.895000457763672 37.94200134277344,20.76300048828125 33.803001403808594,17.399999618530273z"/><path stroke-linecap="round" stroke-linejoin="round" fill-opacity="0" stroke="rgb(25,25,25)" stroke-opacity="1" stroke-width="1" d=" M33.803001403808594,17.399999618530273 C29.665000915527344,14.03600025177002 0.953000009059906,-4.748000144958496 -3.5460000038146973,-7.119999885559082 C-5.939000129699707,-9.60099983215332 -5.7769999504089355,-15.204000473022461 -5.182000160217285,-19.614999771118164 C-4.723999977111816,-23.013999938964844 -4.008999824523926,-25.704999923706055 -4.008999824523926,-25.704999923706055 C-4.008999824523926,-25.704999923706055 -29.658000946044922,-29.400999069213867 -29.658000946044922,-29.400999069213867 C-29.658000946044922,-29.400999069213867 -30.531999588012695,-26.78700065612793 -31.69099998474121,-22.825000762939453 C-34.801998138427734,-12.187000274658203 -37.94300079345703,9.651000022888184 -33.805999755859375,15.345000267028809 C-28.1299991607666,23.159000396728516 13.657999992370605,29.402000427246094 24.361000061035156,28.148000717163086 C35.06399917602539,26.895000457763672 37.94200134277344,20.76300048828125 33.803001403808594,17.399999618530273z"/></g><g opacity="1" transform="matrix(1,0,0,1,426.3630065917969,972.7620239257812)"><path fill="rgb(14,14,14)" fill-opacity="1" d=" M12.753999710083008,3.618000030517578 C13.211999893188477,0.21899999678134918 13.927000045776367,-2.4730000495910645 13.927000045776367,-2.4730000495910645 C13.927000045776367,-2.4730000495910645 -11.722999572753906,-6.168000221252441 -11.722999572753906,-6.168000221252441 C-11.722999572753906,-6.168000221252441 -12.767999649047852,-2.944000005722046 -13.927000045776367,1.0169999599456787 C-6.054999828338623,5.811999797821045 4.39900016784668,6.166999816894531 12.753999710083008,3.618000030517578z"/><path stroke-linecap="round" stroke-linejoin="round" fill-opacity="0" stroke="rgb(25,25,25)" stroke-opacity="1" stroke-width="1" d=" M12.753999710083008,3.618000030517578 C13.211999893188477,0.21899999678134918 13.927000045776367,-2.4730000495910645 13.927000045776367,-2.4730000495910645 C13.927000045776367,-2.4730000495910645 -11.722999572753906,-6.168000221252441 -11.722999572753906,-6.168000221252441 C-11.722999572753906,-6.168000221252441 -12.767999649047852,-2.944000005722046 -13.927000045776367,1.0169999599456787 C-6.054999828338623,5.811999797821045 4.39900016784668,6.166999816894531 12.753999710083008,3.618000030517578z"/></g></g><g transform="matrix(0.9987451434135437,0.0500807948410511,-0.0500807948410511,0.9987451434135437,-190.7086944580078,-324.20916748046875)" opacity="1" style="display: block;"><g opacity="1" transform="matrix(1,0,0,1,442.90301513671875,873.9299926757812)"><path fill="rgb(250,250,250)" fill-opacity="1" d=" M-26.881999969482422,-70.66899871826172 C-37.0359992980957,-40.198001861572266 -36.145999908447266,71.35700225830078 -36.32899856567383,94.55400085449219 C-32.08599853515625,101.2959976196289 5.171000003814697,99.31199645996094 5.171000003814697,99.31199645996094 C5.171000003814697,99.31199645996094 21.5939998626709,-6.021999835968018 34.268001556396484,-65.35199737548828 C37.0369987487793,-101.2959976196289 -16.72800064086914,-101.13999938964844 -26.881999969482422,-70.66899871826172z"/><path stroke-linecap="round" stroke-linejoin="round" fill-opacity="0" stroke="rgb(25,25,25)" stroke-opacity="1" stroke-width="0.959" d=" M-26.881999969482422,-70.66899871826172 C-37.0359992980957,-40.198001861572266 -36.145999908447266,71.35700225830078 -36.32899856567383,94.55400085449219 C-32.08599853515625,101.2959976196289 5.171000003814697,99.31199645996094 5.171000003814697,99.31199645996094 C5.171000003814697,99.31199645996094 21.5939998626709,-6.021999835968018 34.268001556396484,-65.35199737548828 C37.0369987487793,-101.2959976196289 -16.72800064086914,-101.13999938964844 -26.881999969482422,-70.66899871826172z"/></g></g><g transform="matrix(0.9977695345878601,-0.06675266474485397,0.06675266474485397,0.9977695345878601,-284.0452575683594,-271.2185363769531)" opacity="1" style="display: block;"><g opacity="1" transform="matrix(1,0,0,1,446.22100830078125,728.43798828125)"><path fill="rgb(250,250,250)" fill-opacity="1" d=" M30.468000411987305,82.125 C30.472000122070312,82.10700225830078 30.47599983215332,82.08899688720703 30.479999542236328,82.07099914550781 C42.39899826049805,26.290000915527344 42.00199890136719,-96.06600189208984 40.68000030517578,-99.4489974975586 C39.35900115966797,-102.83100128173828 -20.07200050354004,-111.28199768066406 -20.923999786376953,-111.32099914550781 C-20.923999786376953,-111.32099914550781 -33.30799865722656,-56.58599853515625 -36.02000045776367,-36.374000549316406 C-42.39899826049805,11.184000015258789 -32.01100158691406,61.808998107910156 -29.135000228881836,81.21900177001953 C-21.402999877929688,110.6989974975586 18.781999588012695,111.32099914550781 30.468000411987305,82.125z"/></g><g opacity="1" transform="matrix(1,0,0,1,445.5690002441406,711.2999877929688)"><path stroke-linecap="round" stroke-linejoin="round" fill-opacity="0" stroke="rgb(25,25,25)" stroke-opacity="1" stroke-width="0.959" d=" M41.332000732421875,-82.31199645996094 C40.01100158691406,-85.69400024414062 -19.420000076293945,-94.14399719238281 -20.27199935913086,-94.18299865722656 C-20.27199935913086,-94.18299865722656 -32.65700149536133,-39.44900131225586 -35.36800003051758,-19.23699951171875 C-41.33300018310547,25.229000091552734 -32.638999938964844,72.375 -29.132999420166016,94.18299865722656"/></g><g opacity="1" transform="matrix(1,0,0,1,481.7770080566406,753.739990234375)"><path stroke-linecap="round" stroke-linejoin="round" fill-opacity="0" stroke="rgb(25,25,25)" stroke-opacity="1" stroke-width="0.959" d=" M-5.0879998207092285,56.823001861572266 C-5.084000110626221,56.80500030517578 -5.079999923706055,56.7869987487793 -5.076000213623047,56.76900100708008 C1.0509999990463257,28.09600067138672 3.9230000972747803,-18.167999267578125 5.089000225067139,-56.823001861572266"/></g></g><g transform="matrix(0.9982311725616455,-0.0594523549079895,0.0594523549079895,0.9982311725616455,-277.95208740234375,-269.1166687011719)" opacity="1" style="display: block;"><g opacity="1" transform="matrix(1,0,0,1,477.1520080566406,644.7429809570312)"><path fill="rgb(14,14,14)" fill-opacity="1" d=" M-54.709999084472656,-3.2009999752044678 C-47.73400115966797,2.509999990463257 -38.09700012207031,8.206999778747559 -16.264999389648438,11.041999816894531 C8.090999603271484,14.204999923706055 33.659000396728516,7.478000164031982 45.16600036621094,3.0399999618530273 C48.51499938964844,1.7480000257492065 57.231998443603516,-3.618000030517578 56.5620002746582,-5.691999912261963 C56.5620002746582,-5.691999912261963 53.86000061035156,-14.206000328063965 53.86000061035156,-14.206000328063965 C53.86000061035156,-14.206000328063965 -55.92399978637695,-8.930999755859375 -55.92399978637695,-8.930999755859375 C-55.92399978637695,-8.930999755859375 -57.231998443603516,-6.158999919891357 -57.231998443603516,-6.158999919891357 C-57.231998443603516,-6.158999919891357 -55.46200180053711,-3.816999912261963 -54.709999084472656,-3.2009999752044678z"/><path stroke-linecap="round" stroke-linejoin="round" fill-opacity="0" stroke="rgb(25,25,25)" stroke-opacity="1" stroke-width="1" d=" M-54.709999084472656,-3.2009999752044678 C-47.73400115966797,2.509999990463257 -38.09700012207031,8.206999778747559 -16.264999389648438,11.041999816894531 C8.090999603271484,14.204999923706055 33.659000396728516,7.478000164031982 45.16600036621094,3.0399999618530273 C48.51499938964844,1.7480000257492065 57.231998443603516,-3.618000030517578 56.5620002746582,-5.691999912261963 C56.5620002746582,-5.691999912261963 53.86000061035156,-14.206000328063965 53.86000061035156,-14.206000328063965 C53.86000061035156,-14.206000328063965 -55.92399978637695,-8.930999755859375 -55.92399978637695,-8.930999755859375 C-55.92399978637695,-8.930999755859375 -57.231998443603516,-6.158999919891357 -57.231998443603516,-6.158999919891357 C-57.231998443603516,-6.158999919891357 -55.46200180053711,-3.816999912261963 -54.709999084472656,-3.2009999752044678z"/></g><g opacity="1" transform="matrix(1,0,0,1,475.72900390625,569.4660034179688)"><path fill="rgb(0,255,131)" fill-opacity="1" d=" M-39.50400161743164,-55.9739990234375 C-46.12900161743164,-34.3849983215332 -46.88199996948242,0.593999981880188 -55.37900161743164,29.60300064086914 C-63.87699890136719,58.611000061035156 -56.32600021362305,66.6719970703125 -52.2239990234375,70.48100280761719 C-24.0939998626709,89.52799987792969 14.583999633789062,82.2020034790039 33.92300033569336,78.97899627685547 C53.262001037597656,75.75499725341797 58.01300048828125,68.06600189208984 58.01300048828125,68.06600189208984 C58.01300048828125,68.06600189208984 59.189998626708984,47.47700119018555 61.534000396728516,3.818000078201294 C63.87799835205078,-39.84199905395508 49.61800003051758,-63.18600082397461 43.367000579833984,-73.14800262451172 C37.11600112915039,-83.11100006103516 20.871000289916992,-87.88600158691406 11.38700008392334,-88.79000091552734 C3.6500000953674316,-89.52799987792969 -14.722999572753906,-88.41200256347656 -22.59000015258789,-82.23400115966797 C-30.554000854492188,-75.97899627685547 -37.54100036621094,-62.37099838256836 -39.50400161743164,-55.9739990234375z"/><path stroke-linecap="round" stroke-linejoin="round" fill-opacity="0" stroke="rgb(25,25,25)" stroke-opacity="1" stroke-width="1" d=" M-39.50400161743164,-55.9739990234375 C-46.12900161743164,-34.3849983215332 -46.88199996948242,0.593999981880188 -55.37900161743164,29.60300064086914 C-63.87699890136719,58.611000061035156 -56.32600021362305,66.6719970703125 -52.2239990234375,70.48100280761719 C-24.0939998626709,89.52799987792969 14.583999633789062,82.2020034790039 33.92300033569336,78.97899627685547 C53.262001037597656,75.75499725341797 58.01300048828125,68.06600189208984 58.01300048828125,68.06600189208984 C58.01300048828125,68.06600189208984 59.189998626708984,47.47700119018555 61.534000396728516,3.818000078201294 C63.87799835205078,-39.84199905395508 49.61800003051758,-63.18600082397461 43.367000579833984,-73.14800262451172 C37.11600112915039,-83.11100006103516 20.871000289916992,-87.88600158691406 11.38700008392334,-88.79000091552734 C3.6500000953674316,-89.52799987792969 -14.722999572753906,-88.41200256347656 -22.59000015258789,-82.23400115966797 C-30.554000854492188,-75.97899627685547 -37.54100036621094,-62.37099838256836 -39.50400161743164,-55.9739990234375z"/></g><g opacity="1" transform="matrix(1,0,0,1,478.2690124511719,469.3840026855469)"><path fill="rgb(250,250,250)" fill-opacity="1" d=" M22.270000457763672,-15.725000381469727 C19.53499984741211,-10.842000007629395 18.16699981689453,6.544000148773193 22.270000457763672,16.115999221801758 C10.9399995803833,28.031999588012695 -15.041999816894531,22.17099952697754 -22.270000457763672,16.115999221801758 C-3.9070000648498535,-2.8320000171661377 -3.7119998931884766,-28.031999588012695 -3.7119998931884766,-28.031999588012695 C-3.7119998931884766,-28.031999588012695 22.270000457763672,-15.725000381469727 22.270000457763672,-15.725000381469727z"/><path stroke-linecap="round" stroke-linejoin="round" fill-opacity="0" stroke="rgb(25,25,25)" stroke-opacity="1" stroke-width="1" d=" M22.270000457763672,-15.725000381469727 C19.53499984741211,-10.842000007629395 18.16699981689453,6.544000148773193 22.270000457763672,16.115999221801758 C10.9399995803833,28.031999588012695 -15.041999816894531,22.17099952697754 -22.270000457763672,16.115999221801758 C-3.9070000648498535,-2.8320000171661377 -3.7119998931884766,-28.031999588012695 -3.7119998931884766,-28.031999588012695 C-3.7119998931884766,-28.031999588012695 22.270000457763672,-15.725000381469727 22.270000457763672,-15.725000381469727z"/></g></g><g transform="matrix(0.9892895817756653,-0.14596644043922424,0.14596644043922424,0.9892895817756653,-325.87646484375,-227.372314453125)" opacity="1" style="display: block;"><g opacity="1" transform="matrix(1,0,0,1,592.9650268554688,543.8419799804688)"><path fill="rgb(250,250,250)" fill-opacity="1" d=" M-15.92300033569336,5.190000057220459 C-15.92300033569336,5.190000057220459 -4.466000080108643,-13.319999694824219 5.728000164031982,-14.142999649047852 C15.92300033569336,-14.96500015258789 15.592000007629395,-9.027000427246094 11.869000434875488,-8.782999992370605 C8.144000053405762,-8.538999557495117 5.7270002365112305,-6.855000019073486 5.7270002365112305,-6.855000019073486 C5.7270002365112305,-6.855000019073486 12.501999855041504,0.5740000009536743 6.46999979019165,7.34499979019165 C0.43700000643730164,14.114999771118164 -5.181000232696533,11.87399959564209 -8.329999923706055,9.904000282287598 C-11.041000366210938,14.126999855041504 -11.317999839782715,14.965999603271484 -11.317999839782715,14.965999603271484 C-11.317999839782715,14.965999603271484 -15.92300033569336,5.190000057220459 -15.92300033569336,5.190000057220459z"/><path stroke-linecap="round" stroke-linejoin="round" fill-opacity="0" stroke="rgb(25,25,25)" stroke-opacity="1" stroke-width="1" d=" M-15.92300033569336,5.190000057220459 C-15.92300033569336,5.190000057220459 -4.466000080108643,-13.319999694824219 5.728000164031982,-14.142999649047852 C15.92300033569336,-14.96500015258789 15.592000007629395,-9.027000427246094 11.869000434875488,-8.782999992370605 C8.144000053405762,-8.538999557495117 5.7270002365112305,-6.855000019073486 5.7270002365112305,-6.855000019073486 C5.7270002365112305,-6.855000019073486 12.501999855041504,0.5740000009536743 6.46999979019165,7.34499979019165 C0.43700000643730164,14.114999771118164 -5.181000232696533,11.87399959564209 -8.329999923706055,9.904000282287598 C-11.041000366210938,14.126999855041504 -11.317999839782715,14.965999603271484 -11.317999839782715,14.965999603271484 C-11.317999839782715,14.965999603271484 -15.92300033569336,5.190000057220459 -15.92300033569336,5.190000057220459z"/></g></g><g transform="matrix(0.9934481978416443,-0.11428335309028625,0.11428335309028625,0.9934481978416443,-304.54522705078125,-240.8302764892578)" opacity="1" style="display: block;"><g opacity="1" transform="matrix(1,0,0,1,486.7659912109375,562.1170043945312)"><path fill="rgb(0,255,131)" fill-opacity="1" d=" M-33.665000915527344,-39.992000579833984 C-24.840999603271484,-62.63800048828125 -6.409999847412109,-54.22800064086914 -0.5180000066757202,-47.2599983215332 C5.640999794006348,-39.97600173950195 24.7810001373291,7.583000183105469 30.729000091552734,18.48200035095215 C42.17499923706055,37.138999938964844 25.08799934387207,62.637001037597656 9.996999740600586,50.12200164794922 C-8.77400016784668,36.111000061035156 -42.17499923706055,-18.152000427246094 -33.665000915527344,-39.992000579833984z"/><path stroke-linecap="round" stroke-linejoin="round" fill-opacity="0" stroke="rgb(25,25,25)" stroke-opacity="1" stroke-width="0.959" d=" M-33.665000915527344,-39.992000579833984 C-24.840999603271484,-62.63800048828125 -6.409999847412109,-54.22800064086914 -0.5180000066757202,-47.2599983215332 C5.640999794006348,-39.97600173950195 24.7810001373291,7.583000183105469 30.729000091552734,18.48200035095215 C42.17499923706055,37.138999938964844 25.08799934387207,62.637001037597656 9.996999740600586,50.12200164794922 C-8.77400016784668,36.111000061035156 -42.17499923706055,-18.152000427246094 -33.665000915527344,-39.992000579833984z"/></g></g><g transform="matrix(0.9750570058822632,-0.22195452451705933,0.22195452451705933,0.9750570058822632,-359.46868896484375,-175.4186248779297)" opacity="1" style="display: block;"><g opacity="1" transform="matrix(1,0,0,1,536.9869995117188,579.9199829101562)"><path fill="rgb(0,255,131)" fill-opacity="1" d=" M-33.35599899291992,-0.08699999749660492 C-18.02899932861328,-6.730000019073486 17.517000198364258,-26.066999435424805 39.1349983215332,-38.20100021362305 C52.08399963378906,-39.12200164794922 52.14899826049805,-19.999000549316406 52.14899826049805,-19.999000549316406 C52.14899826049805,-19.999000549316406 -3.2320001125335693,29.70599937438965 -25.950000762939453,34.43299865722656 C-48.474998474121094,39.12099838256836 -52.14899826049805,8.059000015258789 -33.35599899291992,-0.08699999749660492z"/></g><g opacity="1" transform="matrix(1,0,0,1,546.3829956054688,577.9349975585938)"><path stroke-linecap="round" stroke-linejoin="round" fill-opacity="0" stroke="rgb(25,25,25)" stroke-opacity="1" stroke-width="0.959" d=" M-42.75199890136719,1.8980000019073486 C-27.395999908447266,-4.675000190734863 8.121000289916992,-24.082000732421875 29.73900032043457,-36.215999603271484 C42.72700119018555,-36.41899871826172 42.75299835205078,-18.013999938964844 42.75299835205078,-18.013999938964844 C42.75299835205078,-18.013999938964844 -12.628000259399414,31.69099998474121 -35.34600067138672,36.417999267578125"/></g></g><g transform="matrix(0.9999052882194519,-0.013762043789029121,0.013762043789029121,0.9999052882194519,-257.9529724121094,-292.1178894042969)" opacity="1" style="display: block;"><g opacity="1" transform="matrix(1,0,0,1,492.0409851074219,427.6059875488281)"><path fill="rgb(250,250,250)" fill-opacity="1" d=" M11.763999938964844,29.1560001373291 C19.79400062561035,28.490999221801758 26.135000228881836,18.461999893188477 27.93400001525879,3.7339999675750732 C30.277999877929688,-15.458000183105469 22.952999114990234,-22.783000946044922 22.952999114990234,-22.783000946044922 C22.952999114990234,-22.783000946044922 2.734999895095825,-31.2810001373291 -13.772000312805176,-22.783000946044922 C-30.277999877929688,-14.28499984741211 -17.586999893188477,17.868000030517578 -17.586999893188477,17.868000030517578 C-17.586999893188477,17.868000030517578 -13.923999786376953,31.2810001373291 11.763999938964844,29.1560001373291z"/><path stroke-linecap="round" stroke-linejoin="round" fill-opacity="0" stroke="rgb(25,25,25)" stroke-opacity="1" stroke-width="1" d=" M11.763999938964844,29.1560001373291 C19.79400062561035,28.490999221801758 26.135000228881836,18.461999893188477 27.93400001525879,3.7339999675750732 C30.277999877929688,-15.458000183105469 22.952999114990234,-22.783000946044922 22.952999114990234,-22.783000946044922 C22.952999114990234,-22.783000946044922 2.734999895095825,-31.2810001373291 -13.772000312805176,-22.783000946044922 C-30.277999877929688,-14.28499984741211 -17.586999893188477,17.868000030517578 -17.586999893188477,17.868000030517578 C-17.586999893188477,17.868000030517578 -13.923999786376953,31.2810001373291 11.763999938964844,29.1560001373291z"/></g><g opacity="1" transform="matrix(1,0,0,1,485.5450134277344,417.3009948730469)"><path fill="rgb(14,14,14)" fill-opacity="1" d=" M-0.8299999833106995,15.335000038146973 C-0.8299999833106995,15.335000038146973 1.7089999914169312,32.91600036621094 -5.322999954223633,38.58100128173828 C-12.354999542236328,44.24599838256836 -13.722999572753906,45.027000427246094 -20.16900062561035,43.65999984741211 C-26.615999221801758,42.292999267578125 -38.14099884033203,42.29999923706055 -38.53200149536133,32.62699890136719 C-38.922000885009766,22.952999114990234 -35.89400100708008,15.822999954223633 -28.86199951171875,11.817999839782715 C-28.86199951171875,11.817999839782715 -37.06700134277344,4.785999774932861 -32.18299865722656,-7.910999774932861 C-27.298999786376953,-20.608999252319336 -17.336999893188477,-18.16699981689453 -17.336999893188477,-18.16699981689453 C-17.336999893188477,-18.16699981689453 -19.290000915527344,-31.35300064086914 -1.4160000085830688,-38.18899917602539 C16.45800018310547,-45.027000427246094 38.82500076293945,-33.891998291015625 38.922000885009766,-8.887999534606934 C37.55500030517578,-1.659999966621399 34.332000732421875,-1.0740000009536743 34.332000732421875,-1.0740000009536743 C34.332000732421875,-1.0740000009536743 11.67199993133545,-7.716000080108643 6.3979997634887695,-0.9769999980926514 C4.443999767303467,2.3440001010894775 4.443999767303467,1.7300000190734863 3.565000057220459,2.0369999408721924 C2.686000108718872,2.3440001010894775 -5.127999782562256,-10.939000129699707 -11.47599983215332,-0.9769999980926514 C-17.825000762939453,8.986000061035156 -0.8299999833106995,15.335000038146973 -0.8299999833106995,15.335000038146973z"/><path stroke-linecap="round" stroke-linejoin="round" fill-opacity="0" stroke="rgb(25,25,25)" stroke-opacity="1" stroke-width="1" d=" M-0.8299999833106995,15.335000038146973 C-0.8299999833106995,15.335000038146973 1.7089999914169312,32.91600036621094 -5.322999954223633,38.58100128173828 C-12.354999542236328,44.24599838256836 -13.722999572753906,45.027000427246094 -20.16900062561035,43.65999984741211 C-26.615999221801758,42.292999267578125 -38.14099884033203,42.29999923706055 -38.53200149536133,32.62699890136719 C-38.922000885009766,22.952999114990234 -35.89400100708008,15.822999954223633 -28.86199951171875,11.817999839782715 C-28.86199951171875,11.817999839782715 -37.06700134277344,4.785999774932861 -32.18299865722656,-7.910999774932861 C-27.298999786376953,-20.608999252319336 -17.336999893188477,-18.16699981689453 -17.336999893188477,-18.16699981689453 C-17.336999893188477,-18.16699981689453 -19.290000915527344,-31.35300064086914 -1.4160000085830688,-38.18899917602539 C16.45800018310547,-45.027000427246094 38.82500076293945,-33.891998291015625 38.922000885009766,-8.887999534606934 C37.55500030517578,-1.659999966621399 34.332000732421875,-1.0740000009536743 34.332000732421875,-1.0740000009536743 C34.332000732421875,-1.0740000009536743 11.67199993133545,-7.716000080108643 6.3979997634887695,-0.9769999980926514 C4.443999767303467,2.3440001010894775 4.443999767303467,1.7300000190734863 3.565000057220459,2.0369999408721924 C2.686000108718872,2.3440001010894775 -5.127999782562256,-10.939000129699707 -11.47599983215332,-0.9769999980926514 C-17.825000762939453,8.986000061035156 -0.8299999833106995,15.335000038146973 -0.8299999833106995,15.335000038146973z"/></g></g></g></g></svg>