<svg width="50" height="26" viewBox="0 0 50 26" fill="none" xmlns="http://www.w3.org/2000/svg">
<path fill-rule="evenodd" clip-rule="evenodd" d="M19.4387 0.404818C18.748 0.73119 18.7325 0.94357 19.2958 2.38348C19.6425 3.27065 20.6402 5.81119 21.5124 8.02912C22.3846 10.247 23.5184 13.3242 24.0316 14.8673C25.6554 19.7484 28.6837 26.464 29.0399 25.9747C29.2287 25.7156 30.5691 23.3869 32.0186 20.799C34.5701 16.2449 35.4541 15.2373 35.4541 16.882C35.4541 17.3149 35.8344 17.9101 36.2994 18.2042C37.466 18.9419 38.2972 16.8234 37.7412 14.5318C37.1466 12.0816 34.8863 7.40325 34.5273 7.88018C34.3544 8.1103 33.1469 10.1874 31.8444 12.4972C30.5413 14.8066 29.2683 16.6148 29.0154 16.5153C28.7624 16.4153 27.8866 14.2839 27.069 11.7784C26.2509 9.27277 24.9174 5.58913 24.1058 3.59326C22.8191 0.430623 22.4738 -0.0312401 21.421 0.00155843C20.7563 0.0225279 19.8645 0.203726 19.4387 0.404818ZM0.0969008 12.5994L0.193816 24.966H2.0087H3.82312L3.986 18.7827C4.07563 15.3819 4.24851 12.4784 4.36999 12.3311C4.49192 12.1832 5.82409 13.6032 7.33096 15.4857L10.0708 18.9091L12.8666 15.6766C14.4044 13.8984 16.4577 11.6009 17.429 10.5707L19.1952 8.69746L18.1643 6.52899L17.1329 4.36053L14.1874 7.78985C12.5677 9.67603 10.8374 11.3713 10.342 11.5574C9.62583 11.8257 8.47612 10.7019 4.72079 6.0639L0 0.232757L0.0969008 12.5994ZM44.3743 5.2063C43.6618 7.49789 42.0544 11.9994 40.8019 15.2088C38.613 20.8173 38.5466 21.1249 39.1016 23.1116C40.0848 26.6318 40.7836 26.2559 42.7873 21.1308C44.7997 15.9825 47.6355 8.18343 49.0655 3.8621L50 1.03928H47.8348H45.6691L44.3743 5.2063ZM18.1652 13.9194C16.5869 15.4647 16.5714 15.5222 16.4126 20.3904L16.2525 25.3021L18.223 25.1338L20.1935 24.966L20.203 18.6499C20.2085 15.1765 20.1102 12.3402 19.9851 12.3467C19.86 12.3537 19.041 13.0613 18.1652 13.9194Z" fill="#00FF84" fill-opacity="0.6"/>
</svg>
